<?xml version="1.0" encoding="UTF-8" standalone="no"?><svg xmlns="http://www.w3.org/2000/svg" xmlns:xlink="http://www.w3.org/1999/xlink" contentScriptType="application/ecmascript" contentStyleType="text/css" height="91px" preserveAspectRatio="none" style="width:818px;height:91px;" version="1.1" viewBox="0 0 818 91" width="818px" zoomAndPan="magnify"><defs/><g><text fill="#000000" font-family="Serif" font-size="10" lengthAdjust="spacingAndGlyphs" textLength="16" x="0" y="25.2822">Mo</text><text fill="#000000" font-family="Serif" font-size="10" lengthAdjust="spacingAndGlyphs" textLength="12" x="2" y="37.2822">16</text><line style="stroke: #C0C0C0; stroke-width: 1.0;" x1="0" x2="0" y1="0" y2="89"/><text fill="#000000" font-family="Serif" font-size="10" lengthAdjust="spacingAndGlyphs" textLength="14" x="17" y="25.2822">Tu</text><text fill="#000000" font-family="Serif" font-size="10" lengthAdjust="spacingAndGlyphs" textLength="12" x="18" y="37.2822">17</text><line style="stroke: #C0C0C0; stroke-width: 1.0;" x1="16" x2="16" y1="41" y2="89"/><text fill="#000000" font-family="Serif" font-size="10" lengthAdjust="spacingAndGlyphs" textLength="17" x="32" y="25.2822">We</text><text fill="#000000" font-family="Serif" font-size="10" lengthAdjust="spacingAndGlyphs" textLength="12" x="34" y="37.2822">18</text><line style="stroke: #C0C0C0; stroke-width: 1.0;" x1="32" x2="32" y1="41" y2="89"/><text fill="#000000" font-family="Serif" font-size="10" lengthAdjust="spacingAndGlyphs" textLength="14" x="49" y="25.2822">Th</text><text fill="#000000" font-family="Serif" font-size="10" lengthAdjust="spacingAndGlyphs" textLength="12" x="50" y="37.2822">19</text><line style="stroke: #C0C0C0; stroke-width: 1.0;" x1="48" x2="48" y1="41" y2="89"/><text fill="#000000" font-family="Serif" font-size="10" lengthAdjust="spacingAndGlyphs" textLength="12" x="66" y="25.2822">Fr</text><text fill="#000000" font-family="Serif" font-size="10" lengthAdjust="spacingAndGlyphs" textLength="12" x="66" y="37.2822">20</text><line style="stroke: #C0C0C0; stroke-width: 1.0;" x1="64" x2="64" y1="41" y2="89"/><rect fill="#E0E8E8" height="48" style="stroke: none; stroke-width: 1.0;" width="15" x="81" y="41"/><line style="stroke: #C0C0C0; stroke-width: 1.0;" x1="80" x2="80" y1="41" y2="89"/><rect fill="#E0E8E8" height="48" style="stroke: none; stroke-width: 1.0;" width="15" x="97" y="41"/><line style="stroke: #C0C0C0; stroke-width: 1.0;" x1="96" x2="96" y1="41" y2="89"/><text fill="#000000" font-family="Serif" font-size="10" lengthAdjust="spacingAndGlyphs" textLength="16" x="112" y="25.2822">Mo</text><text fill="#000000" font-family="Serif" font-size="10" lengthAdjust="spacingAndGlyphs" textLength="12" x="114" y="37.2822">23</text><line style="stroke: #C0C0C0; stroke-width: 1.0;" x1="112" x2="112" y1="41" y2="89"/><text fill="#000000" font-family="Serif" font-size="10" lengthAdjust="spacingAndGlyphs" textLength="14" x="129" y="25.2822">Tu</text><text fill="#000000" font-family="Serif" font-size="10" lengthAdjust="spacingAndGlyphs" textLength="12" x="130" y="37.2822">24</text><line style="stroke: #C0C0C0; stroke-width: 1.0;" x1="128" x2="128" y1="41" y2="89"/><text fill="#000000" font-family="Serif" font-size="10" lengthAdjust="spacingAndGlyphs" textLength="17" x="144" y="25.2822">We</text><text fill="#000000" font-family="Serif" font-size="10" lengthAdjust="spacingAndGlyphs" textLength="12" x="146" y="37.2822">25</text><line style="stroke: #C0C0C0; stroke-width: 1.0;" x1="144" x2="144" y1="41" y2="89"/><text fill="#000000" font-family="Serif" font-size="10" lengthAdjust="spacingAndGlyphs" textLength="14" x="161" y="25.2822">Th</text><text fill="#000000" font-family="Serif" font-size="10" lengthAdjust="spacingAndGlyphs" textLength="12" x="162" y="37.2822">26</text><line style="stroke: #C0C0C0; stroke-width: 1.0;" x1="160" x2="160" y1="41" y2="89"/><text fill="#000000" font-family="Serif" font-size="10" lengthAdjust="spacingAndGlyphs" textLength="12" x="178" y="25.2822">Fr</text><text fill="#000000" font-family="Serif" font-size="10" lengthAdjust="spacingAndGlyphs" textLength="12" x="178" y="37.2822">27</text><line style="stroke: #C0C0C0; stroke-width: 1.0;" x1="176" x2="176" y1="41" y2="89"/><rect fill="#E0E8E8" height="48" style="stroke: none; stroke-width: 1.0;" width="15" x="193" y="41"/><line style="stroke: #C0C0C0; stroke-width: 1.0;" x1="192" x2="192" y1="41" y2="89"/><rect fill="#E0E8E8" height="48" style="stroke: none; stroke-width: 1.0;" width="15" x="209" y="41"/><line style="stroke: #C0C0C0; stroke-width: 1.0;" x1="208" x2="208" y1="41" y2="89"/><text fill="#000000" font-family="Serif" font-size="10" lengthAdjust="spacingAndGlyphs" textLength="16" x="224" y="25.2822">Mo</text><text fill="#000000" font-family="Serif" font-size="10" lengthAdjust="spacingAndGlyphs" textLength="12" x="226" y="37.2822">30</text><line style="stroke: #C0C0C0; stroke-width: 1.0;" x1="224" x2="224" y1="41" y2="89"/><text fill="#000000" font-family="Serif" font-size="10" lengthAdjust="spacingAndGlyphs" textLength="14" x="241" y="25.2822">Tu</text><text fill="#000000" font-family="Serif" font-size="10" lengthAdjust="spacingAndGlyphs" textLength="12" x="242" y="37.2822">31</text><line style="stroke: #C0C0C0; stroke-width: 1.0;" x1="240" x2="240" y1="41" y2="89"/><text fill="#000000" font-family="Serif" font-size="10" lengthAdjust="spacingAndGlyphs" textLength="17" x="256" y="25.2822">We</text><text fill="#000000" font-family="Serif" font-size="10" lengthAdjust="spacingAndGlyphs" textLength="6" x="261" y="37.2822">1</text><text fill="#000000" font-family="Serif" font-size="12" font-weight="bold" lengthAdjust="spacingAndGlyphs" textLength="80" x="88" y="11.2676">March 2020</text><line style="stroke: #C0C0C0; stroke-width: 1.0;" x1="256" x2="256" y1="0" y2="89"/><text fill="#000000" font-family="Serif" font-size="10" lengthAdjust="spacingAndGlyphs" textLength="14" x="273" y="25.2822">Th</text><text fill="#000000" font-family="Serif" font-size="10" lengthAdjust="spacingAndGlyphs" textLength="6" x="277" y="37.2822">2</text><line style="stroke: #C0C0C0; stroke-width: 1.0;" x1="272" x2="272" y1="41" y2="89"/><text fill="#000000" font-family="Serif" font-size="10" lengthAdjust="spacingAndGlyphs" textLength="12" x="290" y="25.2822">Fr</text><text fill="#000000" font-family="Serif" font-size="10" lengthAdjust="spacingAndGlyphs" textLength="6" x="293" y="37.2822">3</text><line style="stroke: #C0C0C0; stroke-width: 1.0;" x1="288" x2="288" y1="41" y2="89"/><rect fill="#E0E8E8" height="48" style="stroke: none; stroke-width: 1.0;" width="15" x="305" y="41"/><line style="stroke: #C0C0C0; stroke-width: 1.0;" x1="304" x2="304" y1="41" y2="89"/><rect fill="#E0E8E8" height="48" style="stroke: none; stroke-width: 1.0;" width="15" x="321" y="41"/><line style="stroke: #C0C0C0; stroke-width: 1.0;" x1="320" x2="320" y1="41" y2="89"/><text fill="#000000" font-family="Serif" font-size="10" lengthAdjust="spacingAndGlyphs" textLength="16" x="336" y="25.2822">Mo</text><text fill="#000000" font-family="Serif" font-size="10" lengthAdjust="spacingAndGlyphs" textLength="6" x="341" y="37.2822">6</text><line style="stroke: #C0C0C0; stroke-width: 1.0;" x1="336" x2="336" y1="41" y2="89"/><text fill="#000000" font-family="Serif" font-size="10" lengthAdjust="spacingAndGlyphs" textLength="14" x="353" y="25.2822">Tu</text><text fill="#000000" font-family="Serif" font-size="10" lengthAdjust="spacingAndGlyphs" textLength="6" x="357" y="37.2822">7</text><line style="stroke: #C0C0C0; stroke-width: 1.0;" x1="352" x2="352" y1="41" y2="89"/><text fill="#000000" font-family="Serif" font-size="10" lengthAdjust="spacingAndGlyphs" textLength="17" x="368" y="25.2822">We</text><text fill="#000000" font-family="Serif" font-size="10" lengthAdjust="spacingAndGlyphs" textLength="6" x="373" y="37.2822">8</text><line style="stroke: #C0C0C0; stroke-width: 1.0;" x1="368" x2="368" y1="41" y2="89"/><text fill="#000000" font-family="Serif" font-size="10" lengthAdjust="spacingAndGlyphs" textLength="14" x="385" y="25.2822">Th</text><text fill="#000000" font-family="Serif" font-size="10" lengthAdjust="spacingAndGlyphs" textLength="6" x="389" y="37.2822">9</text><line style="stroke: #C0C0C0; stroke-width: 1.0;" x1="384" x2="384" y1="41" y2="89"/><text fill="#000000" font-family="Serif" font-size="10" lengthAdjust="spacingAndGlyphs" textLength="12" x="402" y="25.2822">Fr</text><text fill="#000000" font-family="Serif" font-size="10" lengthAdjust="spacingAndGlyphs" textLength="12" x="402" y="37.2822">10</text><line style="stroke: #C0C0C0; stroke-width: 1.0;" x1="400" x2="400" y1="41" y2="89"/><rect fill="#E0E8E8" height="48" style="stroke: none; stroke-width: 1.0;" width="15" x="417" y="41"/><line style="stroke: #C0C0C0; stroke-width: 1.0;" x1="416" x2="416" y1="41" y2="89"/><rect fill="#E0E8E8" height="48" style="stroke: none; stroke-width: 1.0;" width="15" x="433" y="41"/><line style="stroke: #C0C0C0; stroke-width: 1.0;" x1="432" x2="432" y1="41" y2="89"/><text fill="#000000" font-family="Serif" font-size="10" lengthAdjust="spacingAndGlyphs" textLength="16" x="448" y="25.2822">Mo</text><text fill="#000000" font-family="Serif" font-size="10" lengthAdjust="spacingAndGlyphs" textLength="12" x="450" y="37.2822">13</text><line style="stroke: #C0C0C0; stroke-width: 1.0;" x1="448" x2="448" y1="41" y2="89"/><text fill="#000000" font-family="Serif" font-size="10" lengthAdjust="spacingAndGlyphs" textLength="14" x="465" y="25.2822">Tu</text><text fill="#000000" font-family="Serif" font-size="10" lengthAdjust="spacingAndGlyphs" textLength="12" x="466" y="37.2822">14</text><line style="stroke: #C0C0C0; stroke-width: 1.0;" x1="464" x2="464" y1="41" y2="89"/><text fill="#000000" font-family="Serif" font-size="10" lengthAdjust="spacingAndGlyphs" textLength="17" x="480" y="25.2822">We</text><text fill="#000000" font-family="Serif" font-size="10" lengthAdjust="spacingAndGlyphs" textLength="12" x="482" y="37.2822">15</text><line style="stroke: #C0C0C0; stroke-width: 1.0;" x1="480" x2="480" y1="41" y2="89"/><text fill="#000000" font-family="Serif" font-size="10" lengthAdjust="spacingAndGlyphs" textLength="14" x="497" y="25.2822">Th</text><text fill="#000000" font-family="Serif" font-size="10" lengthAdjust="spacingAndGlyphs" textLength="12" x="498" y="37.2822">16</text><line style="stroke: #C0C0C0; stroke-width: 1.0;" x1="496" x2="496" y1="41" y2="89"/><text fill="#000000" font-family="Serif" font-size="10" lengthAdjust="spacingAndGlyphs" textLength="12" x="514" y="25.2822">Fr</text><text fill="#000000" font-family="Serif" font-size="10" lengthAdjust="spacingAndGlyphs" textLength="12" x="514" y="37.2822">17</text><line style="stroke: #C0C0C0; stroke-width: 1.0;" x1="512" x2="512" y1="41" y2="89"/><rect fill="#E0E8E8" height="48" style="stroke: none; stroke-width: 1.0;" width="15" x="529" y="41"/><line style="stroke: #C0C0C0; stroke-width: 1.0;" x1="528" x2="528" y1="41" y2="89"/><rect fill="#E0E8E8" height="48" style="stroke: none; stroke-width: 1.0;" width="15" x="545" y="41"/><line style="stroke: #C0C0C0; stroke-width: 1.0;" x1="544" x2="544" y1="41" y2="89"/><text fill="#000000" font-family="Serif" font-size="10" lengthAdjust="spacingAndGlyphs" textLength="16" x="560" y="25.2822">Mo</text><text fill="#000000" font-family="Serif" font-size="10" lengthAdjust="spacingAndGlyphs" textLength="12" x="562" y="37.2822">20</text><line style="stroke: #C0C0C0; stroke-width: 1.0;" x1="560" x2="560" y1="41" y2="89"/><text fill="#000000" font-family="Serif" font-size="10" lengthAdjust="spacingAndGlyphs" textLength="14" x="577" y="25.2822">Tu</text><text fill="#000000" font-family="Serif" font-size="10" lengthAdjust="spacingAndGlyphs" textLength="12" x="578" y="37.2822">21</text><line style="stroke: #C0C0C0; stroke-width: 1.0;" x1="576" x2="576" y1="41" y2="89"/><text fill="#000000" font-family="Serif" font-size="10" lengthAdjust="spacingAndGlyphs" textLength="17" x="592" y="25.2822">We</text><text fill="#000000" font-family="Serif" font-size="10" lengthAdjust="spacingAndGlyphs" textLength="12" x="594" y="37.2822">22</text><line style="stroke: #C0C0C0; stroke-width: 1.0;" x1="592" x2="592" y1="41" y2="89"/><text fill="#000000" font-family="Serif" font-size="10" lengthAdjust="spacingAndGlyphs" textLength="14" x="609" y="25.2822">Th</text><text fill="#000000" font-family="Serif" font-size="10" lengthAdjust="spacingAndGlyphs" textLength="12" x="610" y="37.2822">23</text><line style="stroke: #C0C0C0; stroke-width: 1.0;" x1="608" x2="608" y1="41" y2="89"/><text fill="#000000" font-family="Serif" font-size="10" lengthAdjust="spacingAndGlyphs" textLength="12" x="626" y="25.2822">Fr</text><text fill="#000000" font-family="Serif" font-size="10" lengthAdjust="spacingAndGlyphs" textLength="12" x="626" y="37.2822">24</text><line style="stroke: #C0C0C0; stroke-width: 1.0;" x1="624" x2="624" y1="41" y2="89"/><rect fill="#E0E8E8" height="48" style="stroke: none; stroke-width: 1.0;" width="15" x="641" y="41"/><line style="stroke: #C0C0C0; stroke-width: 1.0;" x1="640" x2="640" y1="41" y2="89"/><rect fill="#E0E8E8" height="48" style="stroke: none; stroke-width: 1.0;" width="15" x="657" y="41"/><line style="stroke: #C0C0C0; stroke-width: 1.0;" x1="656" x2="656" y1="41" y2="89"/><text fill="#000000" font-family="Serif" font-size="10" lengthAdjust="spacingAndGlyphs" textLength="16" x="672" y="25.2822">Mo</text><text fill="#000000" font-family="Serif" font-size="10" lengthAdjust="spacingAndGlyphs" textLength="12" x="674" y="37.2822">27</text><line style="stroke: #C0C0C0; stroke-width: 1.0;" x1="672" x2="672" y1="41" y2="89"/><text fill="#000000" font-family="Serif" font-size="10" lengthAdjust="spacingAndGlyphs" textLength="14" x="689" y="25.2822">Tu</text><text fill="#000000" font-family="Serif" font-size="10" lengthAdjust="spacingAndGlyphs" textLength="12" x="690" y="37.2822">28</text><line style="stroke: #C0C0C0; stroke-width: 1.0;" x1="688" x2="688" y1="41" y2="89"/><text fill="#000000" font-family="Serif" font-size="10" lengthAdjust="spacingAndGlyphs" textLength="17" x="704" y="25.2822">We</text><text fill="#000000" font-family="Serif" font-size="10" lengthAdjust="spacingAndGlyphs" textLength="12" x="706" y="37.2822">29</text><line style="stroke: #C0C0C0; stroke-width: 1.0;" x1="704" x2="704" y1="41" y2="89"/><text fill="#000000" font-family="Serif" font-size="10" lengthAdjust="spacingAndGlyphs" textLength="14" x="721" y="25.2822">Th</text><text fill="#000000" font-family="Serif" font-size="10" lengthAdjust="spacingAndGlyphs" textLength="12" x="722" y="37.2822">30</text><line style="stroke: #C0C0C0; stroke-width: 1.0;" x1="720" x2="720" y1="41" y2="89"/><text fill="#000000" font-family="Serif" font-size="10" lengthAdjust="spacingAndGlyphs" textLength="12" x="738" y="25.2822">Fr</text><text fill="#000000" font-family="Serif" font-size="10" lengthAdjust="spacingAndGlyphs" textLength="6" x="741" y="37.2822">1</text><text fill="#000000" font-family="Serif" font-size="12" font-weight="bold" lengthAdjust="spacingAndGlyphs" textLength="71" x="460.5" y="11.2676">April 2020</text><line style="stroke: #C0C0C0; stroke-width: 1.0;" x1="736" x2="736" y1="0" y2="89"/><rect fill="#E0E8E8" height="48" style="stroke: none; stroke-width: 1.0;" width="15" x="753" y="41"/><line style="stroke: #C0C0C0; stroke-width: 1.0;" x1="752" x2="752" y1="41" y2="89"/><rect fill="#E0E8E8" height="48" style="stroke: none; stroke-width: 1.0;" width="15" x="769" y="41"/><line style="stroke: #C0C0C0; stroke-width: 1.0;" x1="768" x2="768" y1="41" y2="89"/><text fill="#000000" font-family="Serif" font-size="10" lengthAdjust="spacingAndGlyphs" textLength="16" x="784" y="25.2822">Mo</text><text fill="#000000" font-family="Serif" font-size="10" lengthAdjust="spacingAndGlyphs" textLength="6" x="789" y="37.2822">4</text><line style="stroke: #C0C0C0; stroke-width: 1.0;" x1="784" x2="784" y1="41" y2="89"/><text fill="#000000" font-family="Serif" font-size="10" lengthAdjust="spacingAndGlyphs" textLength="14" x="801" y="25.2822">Tu</text><text fill="#000000" font-family="Serif" font-size="10" lengthAdjust="spacingAndGlyphs" textLength="6" x="805" y="37.2822">5</text><line style="stroke: #C0C0C0; stroke-width: 1.0;" x1="800" x2="800" y1="41" y2="89"/><line style="stroke: #C0C0C0; stroke-width: 1.0;" x1="816" x2="816" y1="16" y2="89"/><text fill="#000000" font-family="Serif" font-size="12" font-weight="bold" lengthAdjust="spacingAndGlyphs" textLength="64" x="744" y="11.2676">May 2020</text><line style="stroke: #C0C0C0; stroke-width: 1.0;" x1="0" x2="816" y1="0" y2="0"/><line style="stroke: #C0C0C0; stroke-width: 1.0;" x1="0" x2="816" y1="41" y2="41"/><line style="stroke: #CD0A0A; stroke-width: 1.5;" x1="376" x2="376" y1="57" y2="81"/><line style="stroke: #CD0A0A; stroke-width: 1.5;" x1="376" x2="384" y1="81" y2="81"/><polygon fill="#CD0A0A" points="380,77,380,81,380,85,384,81" style="stroke: #CD0A0A; stroke-width: 1.5;"/><rect fill="#ADFF2F" height="12" rx="4" ry="4" style="stroke: #0000FF; stroke-width: 1.0;" width="380" x="2" y="43"/><polygon fill="#000000" points="376,59,382,65,376,71,370,65" style="stroke: #000000; stroke-width: 1.0;"/><rect fill="#FFFFFF" height="12" rx="4" ry="4" style="stroke: #FFFFFF; stroke-width: 1.0;" width="428" x="386" y="75"/><rect fill="#ADFF2F" height="12" rx="4" ry="4" style="stroke: none; stroke-width: 1.0;" width="128.4" x="386" y="75"/><rect fill="#ADFF2F" height="12" style="stroke: none; stroke-width: 1.0;" width="8" x="506.4" y="75"/><rect fill="none" height="12" rx="4" ry="4" style="stroke: #0000FF; stroke-width: 1.0;" width="428" x="386" y="75"/><text fill="#000000" font-family="Serif" font-size="11" lengthAdjust="spacingAndGlyphs" textLength="100" x="16" y="51.8081">Test du prototype</text><text fill="#000000" font-family="Serif" font-size="11" lengthAdjust="spacingAndGlyphs" textLength="103" x="384" y="67.8081">Prototype terminé</text><text fill="#000000" font-family="Serif" font-size="11" lengthAdjust="spacingAndGlyphs" textLength="144" x="400" y="83.8081">Mise en place production</text><!--MD5=[d41d8cd98f00b204e9800998ecf8427e]
--></g></svg>