<?xml version="1.0" encoding="UTF-8" standalone="no"?><svg xmlns="http://www.w3.org/2000/svg" xmlns:xlink="http://www.w3.org/1999/xlink" contentScriptType="application/ecmascript" contentStyleType="text/css" height="147px" preserveAspectRatio="none" style="width:603px;height:147px;" version="1.1" viewBox="0 0 603 147" width="603px" zoomAndPan="magnify"><defs/><g><text fill="#000000" font-family="Serif" font-size="15" lengthAdjust="spacingAndGlyphs" textLength="9" x="7.5" y="13.9233">1</text><line style="stroke: #C0C0C0; stroke-width: 1.5;" x1="0" x2="0" y1="0" y2="144"/><text fill="#000000" font-family="Serif" font-size="15" lengthAdjust="spacingAndGlyphs" textLength="9" x="31.5" y="13.9233">2</text><line style="stroke: #C0C0C0; stroke-width: 1.5;" x1="24" x2="24" y1="0" y2="144"/><text fill="#000000" font-family="Serif" font-size="15" lengthAdjust="spacingAndGlyphs" textLength="9" x="55.5" y="13.9233">3</text><line style="stroke: #C0C0C0; stroke-width: 1.5;" x1="48" x2="48" y1="0" y2="144"/><text fill="#000000" font-family="Serif" font-size="15" lengthAdjust="spacingAndGlyphs" textLength="9" x="79.5" y="13.9233">4</text><line style="stroke: #C0C0C0; stroke-width: 1.5;" x1="72" x2="72" y1="0" y2="144"/><text fill="#000000" font-family="Serif" font-size="15" lengthAdjust="spacingAndGlyphs" textLength="9" x="103.5" y="13.9233">5</text><line style="stroke: #C0C0C0; stroke-width: 1.5;" x1="96" x2="96" y1="0" y2="144"/><text fill="#000000" font-family="Serif" font-size="15" lengthAdjust="spacingAndGlyphs" textLength="9" x="127.5" y="13.9233">6</text><line style="stroke: #C0C0C0; stroke-width: 1.5;" x1="120" x2="120" y1="0" y2="144"/><text fill="#000000" font-family="Serif" font-size="15" lengthAdjust="spacingAndGlyphs" textLength="9" x="151.5" y="13.9233">7</text><line style="stroke: #C0C0C0; stroke-width: 1.5;" x1="144" x2="144" y1="0" y2="144"/><text fill="#000000" font-family="Serif" font-size="15" lengthAdjust="spacingAndGlyphs" textLength="9" x="175.5" y="13.9233">8</text><line style="stroke: #C0C0C0; stroke-width: 1.5;" x1="168" x2="168" y1="0" y2="144"/><text fill="#000000" font-family="Serif" font-size="15" lengthAdjust="spacingAndGlyphs" textLength="9" x="199.5" y="13.9233">9</text><line style="stroke: #C0C0C0; stroke-width: 1.5;" x1="192" x2="192" y1="0" y2="144"/><text fill="#000000" font-family="Serif" font-size="15" lengthAdjust="spacingAndGlyphs" textLength="18" x="219" y="13.9233">10</text><line style="stroke: #C0C0C0; stroke-width: 1.5;" x1="216" x2="216" y1="0" y2="144"/><text fill="#000000" font-family="Serif" font-size="15" lengthAdjust="spacingAndGlyphs" textLength="18" x="243" y="13.9233">11</text><line style="stroke: #C0C0C0; stroke-width: 1.5;" x1="240" x2="240" y1="0" y2="144"/><text fill="#000000" font-family="Serif" font-size="15" lengthAdjust="spacingAndGlyphs" textLength="18" x="267" y="13.9233">12</text><line style="stroke: #C0C0C0; stroke-width: 1.5;" x1="264" x2="264" y1="0" y2="144"/><text fill="#000000" font-family="Serif" font-size="15" lengthAdjust="spacingAndGlyphs" textLength="18" x="291" y="13.9233">13</text><line style="stroke: #C0C0C0; stroke-width: 1.5;" x1="288" x2="288" y1="0" y2="144"/><text fill="#000000" font-family="Serif" font-size="15" lengthAdjust="spacingAndGlyphs" textLength="18" x="315" y="13.9233">14</text><line style="stroke: #C0C0C0; stroke-width: 1.5;" x1="312" x2="312" y1="0" y2="144"/><text fill="#000000" font-family="Serif" font-size="15" lengthAdjust="spacingAndGlyphs" textLength="18" x="339" y="13.9233">15</text><line style="stroke: #C0C0C0; stroke-width: 1.5;" x1="336" x2="336" y1="0" y2="144"/><text fill="#000000" font-family="Serif" font-size="15" lengthAdjust="spacingAndGlyphs" textLength="18" x="363" y="13.9233">16</text><line style="stroke: #C0C0C0; stroke-width: 1.5;" x1="360" x2="360" y1="0" y2="144"/><text fill="#000000" font-family="Serif" font-size="15" lengthAdjust="spacingAndGlyphs" textLength="18" x="387" y="13.9233">17</text><line style="stroke: #C0C0C0; stroke-width: 1.5;" x1="384" x2="384" y1="0" y2="144"/><text fill="#000000" font-family="Serif" font-size="15" lengthAdjust="spacingAndGlyphs" textLength="18" x="411" y="13.9233">18</text><line style="stroke: #C0C0C0; stroke-width: 1.5;" x1="408" x2="408" y1="0" y2="144"/><text fill="#000000" font-family="Serif" font-size="15" lengthAdjust="spacingAndGlyphs" textLength="18" x="435" y="13.9233">19</text><line style="stroke: #C0C0C0; stroke-width: 1.5;" x1="432" x2="432" y1="0" y2="144"/><text fill="#000000" font-family="Serif" font-size="15" lengthAdjust="spacingAndGlyphs" textLength="18" x="459" y="13.9233">20</text><line style="stroke: #C0C0C0; stroke-width: 1.5;" x1="456" x2="456" y1="0" y2="144"/><text fill="#000000" font-family="Serif" font-size="15" lengthAdjust="spacingAndGlyphs" textLength="18" x="483" y="13.9233">21</text><line style="stroke: #C0C0C0; stroke-width: 1.5;" x1="480" x2="480" y1="0" y2="144"/><text fill="#000000" font-family="Serif" font-size="15" lengthAdjust="spacingAndGlyphs" textLength="18" x="507" y="13.9233">22</text><line style="stroke: #C0C0C0; stroke-width: 1.5;" x1="504" x2="504" y1="0" y2="144"/><text fill="#000000" font-family="Serif" font-size="15" lengthAdjust="spacingAndGlyphs" textLength="18" x="531" y="13.9233">23</text><line style="stroke: #C0C0C0; stroke-width: 1.5;" x1="528" x2="528" y1="0" y2="144"/><text fill="#000000" font-family="Serif" font-size="15" lengthAdjust="spacingAndGlyphs" textLength="18" x="555" y="13.9233">24</text><line style="stroke: #C0C0C0; stroke-width: 1.5;" x1="552" x2="552" y1="0" y2="144"/><text fill="#000000" font-family="Serif" font-size="15" lengthAdjust="spacingAndGlyphs" textLength="18" x="579" y="13.9233">25</text><line style="stroke: #C0C0C0; stroke-width: 1.5;" x1="576" x2="576" y1="0" y2="144"/><line style="stroke: #C0C0C0; stroke-width: 1.5;" x1="600" x2="600" y1="0" y2="144"/><line style="stroke: #C0C0C0; stroke-width: 1.5;" x1="0" x2="600" y1="0" y2="0"/><line style="stroke: #C0C0C0; stroke-width: 1.5;" x1="0" x2="600" y1="19.5" y2="19.5"/><line style="stroke: #CD0A0A; stroke-width: 2.25;" x1="228" x2="228" y1="48" y2="60"/><line style="stroke: #CD0A0A; stroke-width: 2.25;" x1="228" x2="240" y1="60" y2="60"/><polygon fill="#CD0A0A" points="234,54,234,60,234,66,240,60" style="stroke: #CD0A0A; stroke-width: 2.25;"/><line style="stroke: #CD0A0A; stroke-width: 2.25;" x1="324" x2="324" y1="72" y2="108"/><line style="stroke: #CD0A0A; stroke-width: 2.25;" x1="324" x2="336" y1="108" y2="108"/><polygon fill="#CD0A0A" points="330,102,330,108,330,114,336,108" style="stroke: #CD0A0A; stroke-width: 2.25;"/><line style="stroke: #CD0A0A; stroke-width: 2.25;" x1="444" x2="444" y1="120" y2="132"/><line style="stroke: #CD0A0A; stroke-width: 2.25;" x1="444" x2="456" y1="132" y2="132"/><polygon fill="#CD0A0A" points="450,126,450,132,450,138,456,132" style="stroke: #CD0A0A; stroke-width: 2.25;"/><rect fill="#ADFF2F" height="18" rx="6" ry="6" style="stroke: #0000FF; stroke-width: 1.5;" width="234" x="3" y="27"/><rect fill="#ADFF2F" height="18" rx="6" ry="6" style="stroke: #0000FF; stroke-width: 1.5;" width="90" x="243" y="51"/><line style="stroke: #000000; stroke-width: 1.5;" x1="0" x2="12" y1="84" y2="84"/><line style="stroke: #000000; stroke-width: 1.5;" x1="108" x2="600" y1="84" y2="84"/><rect fill="#ADFF2F" height="18" rx="6" ry="6" style="stroke: #0000FF; stroke-width: 1.5;" width="114" x="339" y="99"/><rect fill="#ADFF2F" height="18" rx="6" ry="6" style="stroke: #0000FF; stroke-width: 1.5;" width="138" x="459" y="123"/><text fill="#000000" font-family="Serif" font-size="16.5" lengthAdjust="spacingAndGlyphs" textLength="52.5" x="24" y="40.2122">Task1</text><text fill="#000000" font-family="Serif" font-size="16.5" lengthAdjust="spacingAndGlyphs" textLength="52.5" x="264" y="64.2122">Task2</text><text fill="#000000" font-family="Serif" font-size="16.5" lengthAdjust="spacingAndGlyphs" textLength="90" x="15" y="87.3157">Phase Two</text><text fill="#000000" font-family="Serif" font-size="16.5" lengthAdjust="spacingAndGlyphs" textLength="52.5" x="360" y="112.2122">Task3</text><text fill="#000000" font-family="Serif" font-size="16.5" lengthAdjust="spacingAndGlyphs" textLength="52.5" x="480" y="136.2122">Task4</text><!--MD5=[d41d8cd98f00b204e9800998ecf8427e]
--></g></svg>