<?xml version="1.0" encoding="UTF-8" standalone="no"?><svg xmlns="http://www.w3.org/2000/svg" xmlns:xlink="http://www.w3.org/1999/xlink" contentScriptType="application/ecmascript" contentStyleType="text/css" height="361px" preserveAspectRatio="none" style="width:254px;height:361px;" version="1.1" viewBox="0 0 254 361" width="254px" zoomAndPan="magnify"><defs><filter height="300%" id="f62094jpk707s" width="300%" x="-1" y="-1"><feGaussianBlur result="blurOut" stdDeviation="2.0"/><feColorMatrix in="blurOut" result="blurOut2" type="matrix" values="0 0 0 0 0 0 0 0 0 0 0 0 0 0 0 0 0 0 .4 0"/><feOffset dx="4.0" dy="4.0" in="blurOut2" result="blurOut3"/><feBlend in="SourceGraphic" in2="blurOut3" mode="normal"/></filter></defs><g><ellipse cx="107.5" cy="18" fill="#000000" filter="url(#f62094jpk707s)" rx="10" ry="10" style="stroke: none; stroke-width: 1.0;"/><rect fill="#FEFECE" filter="url(#f62094jpk707s)" height="33.9688" rx="12.5" ry="12.5" style="stroke: #A80036; stroke-width: 1.5;" width="93" x="61" y="69"/><text fill="#000000" font-family="sans-serif" font-size="12" lengthAdjust="spacingAndGlyphs" textLength="73" x="71" y="90.1387">Initialization</text><polygon fill="#FEFECE" filter="url(#f62094jpk707s)" points="107.5,144,119.5,156,107.5,168,95.5,156,107.5,144" style="stroke: #A80036; stroke-width: 1.5;"/><rect fill="#FEFECE" filter="url(#f62094jpk707s)" height="33.9688" rx="12.5" ry="12.5" style="stroke: #A80036; stroke-width: 1.5;" width="102" x="12.5" y="242"/><text fill="#000000" font-family="sans-serif" font-size="12" lengthAdjust="spacingAndGlyphs" textLength="82" x="22.5" y="263.1387">Some Activity</text><rect fill="#FEFECE" filter="url(#f62094jpk707s)" height="33.9688" rx="12.5" ry="12.5" style="stroke: #A80036; stroke-width: 1.5;" width="117" x="6" y="317"/><text fill="#000000" font-family="sans-serif" font-size="12" lengthAdjust="spacingAndGlyphs" textLength="97" x="16" y="338.1387">Another activity</text><ellipse cx="153.5" cy="334" fill="none" filter="url(#f62094jpk707s)" rx="10" ry="10" style="stroke: #000000; stroke-width: 1.0;"/><ellipse cx="154" cy="334.5" fill="#000000" rx="6" ry="6" style="stroke: none; stroke-width: 1.0;"/><rect fill="#FEFECE" filter="url(#f62094jpk707s)" height="33.9688" rx="12.5" ry="12.5" style="stroke: #A80036; stroke-width: 1.5;" width="117" x="95" y="188"/><text fill="#000000" font-family="sans-serif" font-size="12" lengthAdjust="spacingAndGlyphs" textLength="97" x="105" y="209.1387">Something else</text><!--MD5=[0f23ef6eb4b1b6c14a21cac5fe254886]
link start to Initialization--><path d="M107.5,28.177 C107.5,37.269 107.5,51.527 107.5,63.485 " fill="none" id="start-&gt;Initialization" style="stroke: #A80036; stroke-width: 1.0;"/><polygon fill="#A80036" points="107.5,68.791,111.5,59.791,107.5,63.791,103.5,59.791,107.5,68.791" style="stroke: #A80036; stroke-width: 1.0;"/><!--MD5=[4e96ccb2fb001e90f68df93f08e61a81]
link Initialization to #314753--><path d="M107.5,103.115 C107.5,113.916 107.5,128.082 107.5,138.883 " fill="none" id="Initialization-&gt;#314753" style="stroke: #A80036; stroke-width: 1.0;"/><polygon fill="#A80036" points="107.5,143.885,111.5,134.885,107.5,138.885,103.5,134.885,107.5,143.885" style="stroke: #A80036; stroke-width: 1.0;"/><text fill="#000000" font-family="sans-serif" font-size="11" lengthAdjust="spacingAndGlyphs" textLength="62" x="30.3875" y="133.4605">Some Test</text><!--MD5=[c656b9002c9133ee154a0ce462ef7c16]
link #314753 to Some Activity--><path d="M98.8136,159.698 C87.4064,163.764 67.8503,172.667 59.5,188 C51.4114,202.853 53.2808,222.202 56.6817,236.792 " fill="none" id="#314753-&gt;Some Activity" style="stroke: #A80036; stroke-width: 1.0;"/><polygon fill="#A80036" points="57.9884,241.935,59.6486,232.2271,56.757,237.089,51.895,234.1974,57.9884,241.935" style="stroke: #A80036; stroke-width: 1.0;"/><text fill="#000000" font-family="sans-serif" font-size="11" lengthAdjust="spacingAndGlyphs" textLength="23" x="60.5" y="209.2104">true</text><!--MD5=[97e0d588043c3fbfd2b2e59d052c508a]
link Some Activity to Another activity--><path d="M63.7219,276.2011 C63.8656,286.6917 64.0543,300.4627 64.2098,311.8176 " fill="none" id="Some Activity-&gt;Another activity" style="stroke: #A80036; stroke-width: 1.0;"/><polygon fill="#A80036" points="64.2787,316.8442,68.1549,307.7902,64.2101,311.8447,60.1556,307.8999,64.2787,316.8442" style="stroke: #A80036; stroke-width: 1.0;"/><!--MD5=[14518ea1a79a02d11bb86953a1b562de]
link Another activity to end--><path d="M123.254,334 C128.113,334 132.972,334 137.831,334 " fill="none" id="Another activity-&gt;end" style="stroke: #A80036; stroke-width: 1.0;"/><polygon fill="#A80036" points="143.103,334,134.103,330,138.103,334,134.103,338,143.103,334" style="stroke: #A80036; stroke-width: 1.0;"/><!--MD5=[f842234ac228c29444186c7a778d7e0c]
link #314753 to Something else--><path d="M113.141,162.763 C118.336,168.072 126.357,176.267 133.884,183.957 " fill="none" id="#314753-&gt;Something else" style="stroke: #A80036; stroke-width: 1.0;"/><polygon fill="#A80036" points="137.524,187.677,134.089,178.4466,134.0272,184.1031,128.3707,184.0414,137.524,187.677" style="stroke: #A80036; stroke-width: 1.0;"/><text fill="#000000" font-family="sans-serif" font-size="11" lengthAdjust="spacingAndGlyphs" textLength="28" x="126.035" y="172.1264">false</text><!--MD5=[6008a548d6e19d71c4fdb729e150d919]
link Something else to end--><path d="M153.5,222.085 C153.5,247.049 153.5,294.728 153.5,318.614 " fill="none" id="Something else-&gt;end" style="stroke: #A80036; stroke-width: 1.0;"/><polygon fill="#A80036" points="153.5,323.876,157.5,314.876,153.5,318.876,149.5,314.876,153.5,323.876" style="stroke: #A80036; stroke-width: 1.0;"/><text fill="#000000" font-family="sans-serif" font-size="11" lengthAdjust="spacingAndGlyphs" textLength="88" x="154.5" y="263.2104">Ending process</text><!--MD5=[d56b3d4cd91a4d868575be9c70ba261b]
@startuml
(*) - -> "Initialization"

if "Some Test" then
  - ->[true] "Some Activity"
  - -> "Another activity"
  -right-> (*)
else
  ->[false] "Something else"
  - ->[Ending process] (*)
endif
@enduml

PlantUML version 1.2020.02(Sun Mar 01 10:22:07 UTC 2020)
(GPL source distribution)
Java Runtime: Java(TM) SE Runtime Environment
JVM: Java HotSpot(TM) 64-Bit Server VM
Java Version: 1.7.0_25-b15
Operating System: Linux
Default Encoding: UTF-8
Language: en
Country: US
--></g></svg>