<?xml version="1.0" encoding="UTF-8" standalone="no"?><svg xmlns="http://www.w3.org/2000/svg" xmlns:xlink="http://www.w3.org/1999/xlink" contentScriptType="application/ecmascript" contentStyleType="text/css" height="619px" preserveAspectRatio="none" style="width:346px;height:619px;" version="1.1" viewBox="0 0 346 619" width="346px" zoomAndPan="magnify"><defs><filter height="300%" id="f1xouoj8u5biwm" width="300%" x="-1" y="-1"><feGaussianBlur result="blurOut" stdDeviation="2.0"/><feColorMatrix in="blurOut" result="blurOut2" type="matrix" values="0 0 0 0 0 0 0 0 0 0 0 0 0 0 0 0 0 0 .4 0"/><feOffset dx="4.0" dy="4.0" in="blurOut2" result="blurOut3"/><feBlend in="SourceGraphic" in2="blurOut3" mode="normal"/></filter></defs><g><!--MD5=[4a813ad39bc04da289496f99803e834d]
cluster Conductor--><polygon fill="#FFFFFF" filter="url(#f1xouoj8u5biwm)" points="22,24,111,24,118,46.2969,190,46.2969,190,424,22,424,22,24" style="stroke: #000000; stroke-width: 1.5;"/><line style="stroke: #000000; stroke-width: 1.5;" x1="22" x2="118" y1="46.2969" y2="46.2969"/><text fill="#000000" font-family="sans-serif" font-size="14" font-weight="bold" lengthAdjust="spacingAndGlyphs" textLength="83" x="26" y="38.9951">Conductor</text><!--MD5=[c02177e7a6990d66e4cd25d23a209821]
cluster Audience--><polygon fill="#87CEFA" filter="url(#f1xouoj8u5biwm)" points="214,217,294,217,301,239.2969,324,239.2969,324,302,214,302,214,217" style="stroke: #000000; stroke-width: 1.5;"/><line style="stroke: #000000; stroke-width: 1.5;" x1="214" x2="301" y1="239.2969" y2="239.2969"/><text fill="#000000" font-family="sans-serif" font-size="14" font-weight="bold" lengthAdjust="spacingAndGlyphs" textLength="74" x="218" y="231.9951">Audience</text><!--MD5=[e57b8dbe184645b3d1e1bfc026aae8e5]
cluster Orchestra--><polygon fill="#CCCCEE" filter="url(#f1xouoj8u5biwm)" points="60,448,145,448,152,470.2969,188,470.2969,188,607,60,607,60,448" style="stroke: #000000; stroke-width: 1.5;"/><line style="stroke: #000000; stroke-width: 1.5;" x1="60" x2="152" y1="470.2969" y2="470.2969"/><text fill="#000000" font-family="sans-serif" font-size="14" font-weight="bold" lengthAdjust="spacingAndGlyphs" textLength="79" x="64" y="462.9951">Orchestra</text><ellipse cx="106" cy="69" fill="#000000" filter="url(#f1xouoj8u5biwm)" rx="10" ry="10" style="stroke: none; stroke-width: 1.0;"/><rect fill="#FEFECE" filter="url(#f1xouoj8u5biwm)" height="33.9688" rx="12.5" ry="12.5" style="stroke: #A80036; stroke-width: 1.5;" width="136" x="38" y="119"/><text fill="#000000" font-family="sans-serif" font-size="12" lengthAdjust="spacingAndGlyphs" textLength="116" x="48" y="140.1387">Climbs on Platform</text><rect fill="#000000" filter="url(#f1xouoj8u5biwm)" height="8" style="stroke: none; stroke-width: 1.0;" width="80" x="89" y="193"/><rect fill="#FEFECE" filter="url(#f1xouoj8u5biwm)" height="33.9688" rx="12.5" ry="12.5" style="stroke: #A80036; stroke-width: 1.5;" width="52" x="103" y="252"/><text fill="#000000" font-family="sans-serif" font-size="12" lengthAdjust="spacingAndGlyphs" textLength="32" x="113" y="273.1387">Bows</text><rect fill="#000000" filter="url(#f1xouoj8u5biwm)" height="8" style="stroke: none; stroke-width: 1.0;" width="80" x="89" y="326"/><rect fill="#FEFECE" filter="url(#f1xouoj8u5biwm)" height="33.9688" rx="12.5" ry="12.5" style="stroke: #A80036; stroke-width: 1.5;" width="99" x="74.5" y="374"/><text fill="#000000" font-family="sans-serif" font-size="12" lengthAdjust="spacingAndGlyphs" textLength="79" x="84.5" y="395.1387">WavesArmes</text><rect fill="#FEFECE" filter="url(#f1xouoj8u5biwm)" height="33.9688" rx="12.5" ry="12.5" style="stroke: #A80036; stroke-width: 1.5;" width="78" x="230" y="252"/><text fill="#000000" font-family="sans-serif" font-size="12" lengthAdjust="spacingAndGlyphs" textLength="58" x="240" y="273.1387">Applauds</text><rect fill="#FEFECE" filter="url(#f1xouoj8u5biwm)" height="33.9688" rx="12.5" ry="12.5" style="stroke: #A80036; stroke-width: 1.5;" width="96" x="76" y="483"/><text fill="#000000" font-family="sans-serif" font-size="12" lengthAdjust="spacingAndGlyphs" textLength="76" x="86" y="504.1387">Introduction</text><rect fill="#FEFECE" filter="url(#f1xouoj8u5biwm)" height="33.9688" rx="12.5" ry="12.5" style="stroke: #A80036; stroke-width: 1.5;" width="85" x="81.5" y="557"/><text fill="#000000" font-family="sans-serif" font-size="12" lengthAdjust="spacingAndGlyphs" textLength="65" x="91.5" y="578.1387">Play music</text><!--MD5=[849c6e42b1bf196375e3c04d769d73f7]
link start to Climbs on Platform--><path d="M106,79.038 C106,87.932 106,101.844 106,113.572 " fill="none" id="start-&gt;Climbs on Platform" style="stroke: #A80036; stroke-width: 1.0;"/><polygon fill="#A80036" points="106,118.781,110,109.781,106,113.781,102,109.781,106,118.781" style="stroke: #A80036; stroke-width: 1.0;"/><!--MD5=[0e9b11d2740e56c189749770539cdd9d]
link Climbs on Platform to S1--><path d="M112.285,153.122 C116.691,164.424 122.392,179.049 125.869,187.967 " fill="none" id="Climbs on Platform-&gt;S1" style="stroke: #A80036; stroke-width: 1.0;"/><polygon fill="#A80036" points="127.714,192.701,128.17,182.8627,125.897,188.0428,120.7169,185.7699,127.714,192.701" style="stroke: #A80036; stroke-width: 1.0;"/><!--MD5=[cf319800d22d6c2360adc378c2eae2e2]
link S1 to Bows--><path d="M129,201.008 C129,208.766 129,230.004 129,246.507 " fill="none" id="S1-&gt;Bows" style="stroke: #A80036; stroke-width: 1.0;"/><polygon fill="#A80036" points="129,251.897,133,242.897,129,246.897,125,242.897,129,251.897" style="stroke: #A80036; stroke-width: 1.0;"/><!--MD5=[9936e995706d00f3567e06ee876ba492]
link S1 to Applauds--><path d="M158.351,201.022 C167.76,202.653 178.053,205.159 187,209 C209.582,218.696 232.01,235.454 247.688,248.639 " fill="none" id="S1-&gt;Applauds" style="stroke: #A80036; stroke-width: 1.0;"/><polygon fill="#A80036" points="251.524,251.907,247.2663,243.026,247.7177,248.6648,242.0788,249.1162,251.524,251.907" style="stroke: #A80036; stroke-width: 1.0;"/><!--MD5=[d3499ec33ef7151056f290236fd8ffee]
link Bows to S2--><path d="M129,286.122 C129,297.211 129,311.499 129,320.456 " fill="none" id="Bows-&gt;S2" style="stroke: #A80036; stroke-width: 1.0;"/><polygon fill="#A80036" points="129,325.701,133,316.701,129,320.701,125,316.701,129,325.701" style="stroke: #A80036; stroke-width: 1.0;"/><!--MD5=[9c9180c4e72fb687a9f792a9783ea13b]
link S2 to WavesArmes--><path d="M128.731,334.172 C128.18,340.68 126.88,356.021 125.782,368.978 " fill="none" id="S2-&gt;WavesArmes" style="stroke: #A80036; stroke-width: 1.0;"/><polygon fill="#A80036" points="125.357,373.985,130.1039,365.3556,125.7799,369.0029,122.1326,364.6789,125.357,373.985" style="stroke: #A80036; stroke-width: 1.0;"/><!--MD5=[a351a989f5a5cd5531d9156c797a9f24]
link Applauds to S2--><path d="M238.691,286.021 C223.415,293.776 204.468,302.917 187,310 C173.035,315.662 156.686,320.897 144.912,324.432 " fill="none" id="Applauds-&gt;S2" style="stroke: #A80036; stroke-width: 1.0;"/><polygon fill="#A80036" points="139.849,325.932,149.6144,327.2114,144.6431,324.512,147.3425,319.5408,139.849,325.932" style="stroke: #A80036; stroke-width: 1.0;"/><!--MD5=[eeb5e01b7a70c72fb8f6ee9c7a2b8daf]
link WavesArmes to Introduction--><path d="M124,408.251 C124,426.82 124,457.273 124,477.72 " fill="none" id="WavesArmes-&gt;Introduction" style="stroke: #A80036; stroke-width: 1.0;"/><polygon fill="#A80036" points="124,482.947,128,473.947,124,477.947,120,473.947,124,482.947" style="stroke: #A80036; stroke-width: 1.0;"/><!--MD5=[048564e51c263f6942559181109202a1]
link Introduction to Play music--><path d="M124,517.338 C124,527.4641 124,540.5843 124,551.5432 " fill="none" id="Introduction-&gt;Play music" style="stroke: #A80036; stroke-width: 1.0;"/><polygon fill="#A80036" points="124,556.7267,128,547.7267,124,551.7267,120,547.7267,124,556.7267" style="stroke: #A80036; stroke-width: 1.0;"/><!--MD5=[f47cc7bdc7ffc47899c5b00c76d9d1a0]
@startuml
partition Conductor {
  (*) - -> "Climbs on Platform"
  - -> === S1 ===
  - -> Bows
}

partition Audience #LightSkyBlue {
  === S1 === - -> Applauds
}

partition Conductor {
  Bows - -> === S2 ===
  - -> WavesArmes
  Applauds - -> === S2 ===
}

partition Orchestra #CCCCEE {
  WavesArmes - -> Introduction
  - -> "Play music"
}
@enduml

PlantUML version 1.2020.02(Sun Mar 01 10:22:07 UTC 2020)
(GPL source distribution)
Java Runtime: Java(TM) SE Runtime Environment
JVM: Java HotSpot(TM) 64-Bit Server VM
Java Version: 1.7.0_25-b15
Operating System: Linux
Default Encoding: UTF-8
Language: en
Country: US
--></g></svg>