<?xml version="1.0" encoding="UTF-8" standalone="no"?><svg xmlns="http://www.w3.org/2000/svg" xmlns:xlink="http://www.w3.org/1999/xlink" contentScriptType="application/ecmascript" contentStyleType="text/css" height="229px" preserveAspectRatio="none" style="width:451px;height:229px;" version="1.1" viewBox="0 0 451 229" width="451px" zoomAndPan="magnify"><defs><filter height="300%" id="f7rwxoldmcm9c" width="300%" x="-1" y="-1"><feGaussianBlur result="blurOut" stdDeviation="2.0"/><feColorMatrix in="blurOut" result="blurOut2" type="matrix" values="0 0 0 0 0 0 0 0 0 0 0 0 0 0 0 0 0 0 .4 0"/><feOffset dx="4.0" dy="4.0" in="blurOut2" result="blurOut3"/><feBlend in="SourceGraphic" in2="blurOut3" mode="normal"/></filter></defs><g><!--MD5=[dd1dba2181b62d7a6b9501e057c2fe75]
cluster admin--><rect fill="#FFFFFF" filter="url(#f7rwxoldmcm9c)" height="113" style="stroke: #000000; stroke-width: 1.5;" width="280" x="160.5" y="24"/><text fill="#000000" font-family="sans-serif" font-size="14" font-weight="bold" lengthAdjust="spacingAndGlyphs" textLength="106" x="247.5" y="38.9951">Gerrit / Gitlab</text><!--MD5=[bf1b4add2ee2e1b53e65912b20fb7ef4]
entity ui--><rect fill="#FEFECE" filter="url(#f7rwxoldmcm9c)" height="36.2969" style="stroke: #A80036; stroke-width: 1.5;" width="52" x="176.5" y="76"/><text fill="#000000" font-family="sans-serif" font-size="14" lengthAdjust="spacingAndGlyphs" textLength="32" x="186.5" y="98.9951">front</text><!--MD5=[74b17aa3a46a51a0367a31414923af4b]
entity repo_local--><path d="M372.5,69 C372.5,59 398.5,59 398.5,59 C398.5,59 424.5,59 424.5,69 L424.5,110.5938 C424.5,120.5938 398.5,120.5938 398.5,120.5938 C398.5,120.5938 372.5,120.5938 372.5,110.5938 L372.5,69 " fill="#FEFECE" filter="url(#f7rwxoldmcm9c)" style="stroke: #000000; stroke-width: 1.5;"/><path d="M372.5,69 C372.5,79 398.5,79 398.5,79 C398.5,79 424.5,79 424.5,69 " fill="none" style="stroke: #000000; stroke-width: 1.5;"/><text fill="#000000" font-family="sans-serif" font-size="14" lengthAdjust="spacingAndGlyphs" textLength="31" x="382.5" y="95.9951">local</text><text fill="#000000" font-family="sans-serif" font-size="14" lengthAdjust="spacingAndGlyphs" textLength="32" x="382.5" y="112.292">repo</text><!--MD5=[23e4898078453906b079a6bea7d1245c]
entity developer--><ellipse cx="40.5" cy="63" fill="#FEFECE" filter="url(#f7rwxoldmcm9c)" rx="8" ry="8" style="stroke: #A80036; stroke-width: 1.5;"/><path d="M40.5,71 L40.5,98 M27.5,79 L53.5,79 M40.5,98 L27.5,113 M40.5,98 L53.5,113 " fill="none" filter="url(#f7rwxoldmcm9c)" style="stroke: #A80036; stroke-width: 1.5;"/><text fill="#000000" font-family="sans-serif" font-size="14" lengthAdjust="spacingAndGlyphs" textLength="69" x="6" y="131.4951">developer</text><!--MD5=[ae38f3df50bbf8acf027574e6a8bac37]
entity repo--><path d="M365,166 C365,156 398.5,156 398.5,156 C398.5,156 432,156 432,166 L432,207.5938 C432,217.5938 398.5,217.5938 398.5,217.5938 C398.5,217.5938 365,217.5938 365,207.5938 L365,166 " fill="#FEFECE" filter="url(#f7rwxoldmcm9c)" style="stroke: #000000; stroke-width: 1.5;"/><path d="M365,166 C365,176 398.5,176 398.5,176 C398.5,176 432,176 432,166 " fill="none" style="stroke: #000000; stroke-width: 1.5;"/><text fill="#000000" font-family="sans-serif" font-size="14" lengthAdjust="spacingAndGlyphs" textLength="47" x="375" y="192.9951">central</text><text fill="#000000" font-family="sans-serif" font-size="14" lengthAdjust="spacingAndGlyphs" textLength="32" x="375" y="209.292">repo</text><!--MD5=[9d43cf96047e378adcca12cb04008485]
entity jenkins--><rect fill="#FEFECE" filter="url(#f7rwxoldmcm9c)" height="36.2969" style="stroke: #A80036; stroke-width: 1.5;" width="69" x="168" y="179"/><text fill="#000000" font-family="sans-serif" font-size="14" lengthAdjust="spacingAndGlyphs" textLength="49" x="178" y="201.9951">Jenkins</text><!--MD5=[cc9b45b380763288d77c2dfce4828dc6]
link developer to ui--><path d="M75.0412,94 C103.3908,94 143.652,94 171.079,94 " fill="none" id="developer-&gt;ui" style="stroke: #A80036; stroke-width: 1.0;"/><polygon fill="#A80036" points="176.386,94,167.386,90,171.386,94,167.386,98,176.386,94" style="stroke: #A80036; stroke-width: 1.0;"/><text fill="#000000" font-family="sans-serif" font-size="13" lengthAdjust="spacingAndGlyphs" textLength="31" x="106" y="90.0669">push</text><!--MD5=[ffcededc9d1437bb7cacf9f637080c4e]
link ui to repo_local--><path d="M228.862,93.477 C264.397,92.744 328.913,91.414 367.016,90.629 " fill="none" id="ui-&gt;repo_local" style="stroke: #A80036; stroke-width: 1.0;"/><polygon fill="#A80036" points="372.439,90.517,363.3586,86.7029,367.4401,90.6198,363.5232,94.7013,372.439,90.517" style="stroke: #A80036; stroke-width: 1.0;"/><text fill="#000000" font-family="sans-serif" font-size="13" lengthAdjust="spacingAndGlyphs" textLength="31" x="285.5" y="87.0669">push</text><!--MD5=[5d9e52ece3a811db579290a6c7622bb9]
reverse link jenkins to ui--><path d="M202.5,173.5404 C202.5,154.9471 202.5,129.3389 202.5,112.255 " fill="none" id="jenkins&lt;-ui" style="stroke: #A80036; stroke-width: 1.0;"/><polygon fill="#A80036" points="202.5,178.5857,206.5,169.5857,202.5,173.5857,198.5,169.5857,202.5,178.5857" style="stroke: #A80036; stroke-width: 1.0;"/><text fill="#000000" font-family="sans-serif" font-size="13" lengthAdjust="spacingAndGlyphs" textLength="0" x="185.5" y="142.5669"/><text fill="#000000" font-family="sans-serif" font-size="13" lengthAdjust="spacingAndGlyphs" textLength="31" x="166" y="157.6997">push</text><!--MD5=[93c6bd3ce2d8141a69f15c93238d9df3]
link ui to repo--><path d="M228.862,106.158 C262.32,122.1971 321.469,150.5521 360.073,169.0584 " fill="none" id="ui-&gt;repo" style="stroke: #A80036; stroke-width: 1.0; stroke-dasharray: 7.0,7.0;"/><polygon fill="#A80036" points="364.676,171.2649,358.2895,163.7674,360.1673,169.1035,354.8312,170.9813,364.676,171.2649" style="stroke: #A80036; stroke-width: 1.0;"/><text fill="#000000" font-family="sans-serif" font-size="13" lengthAdjust="spacingAndGlyphs" textLength="66" x="268" y="122.0669">replication</text><!--MD5=[9e4202c4b7de3b6d6e41b9d0536a14bf]
@startuml
left to right direction

actor developer
database repo as "central\nrepo"
agent jenkins as "Jenkins"

rectangle admin as "Gerrit / Gitlab" {
    agent ui as "front"
    database repo_local as "local\nrepo"
}

developer - -> ui : push
ui - -> repo_local : push
ui -left-> jenkins: "\npush "
ui ..> repo : replication
@enduml

PlantUML version 1.2020.02(Sun Mar 01 10:22:07 UTC 2020)
(GPL source distribution)
Java Runtime: Java(TM) SE Runtime Environment
JVM: Java HotSpot(TM) 64-Bit Server VM
Java Version: 1.7.0_25-b15
Operating System: Linux
Default Encoding: UTF-8
Language: en
Country: US
--></g></svg>