<?xml version="1.0" encoding="UTF-8" standalone="no"?><svg xmlns="http://www.w3.org/2000/svg" xmlns:xlink="http://www.w3.org/1999/xlink" contentScriptType="application/ecmascript" contentStyleType="text/css" height="524px" preserveAspectRatio="none" style="width:648px;height:524px;" version="1.1" viewBox="0 0 648 524" width="648px" zoomAndPan="magnify"><defs><filter height="300%" id="f1wxxjyieah60b" width="300%" x="-1" y="-1"><feGaussianBlur result="blurOut" stdDeviation="2.0"/><feColorMatrix in="blurOut" result="blurOut2" type="matrix" values="0 0 0 0 0 0 0 0 0 0 0 0 0 0 0 0 0 0 .4 0"/><feOffset dx="4.0" dy="4.0" in="blurOut2" result="blurOut3"/><feBlend in="SourceGraphic" in2="blurOut3" mode="normal"/></filter></defs><g><ellipse cx="610.707" cy="33" fill="#000000" filter="url(#f1wxxjyieah60b)" rx="10" ry="10" style="stroke: none; stroke-width: 1.0;"/><rect fill="#FEFECE" filter="url(#f1wxxjyieah60b)" height="50" rx="12.5" ry="12.5" style="stroke: #A80036; stroke-width: 1.5;" width="65" x="500.207" y="8"/><line style="stroke: #A80036; stroke-width: 1.5;" x1="500.207" x2="565.207" y1="34.2969" y2="34.2969"/><text fill="#000000" font-family="sans-serif" font-size="14" lengthAdjust="spacingAndGlyphs" textLength="45" x="510.207" y="25.9951">State1</text><rect fill="#FEFECE" filter="url(#f1wxxjyieah60b)" height="50" rx="12.5" ry="12.5" style="stroke: #A80036; stroke-width: 1.5;" width="65" x="262.207" y="8"/><line style="stroke: #A80036; stroke-width: 1.5;" x1="262.207" x2="327.207" y1="34.2969" y2="34.2969"/><text fill="#000000" font-family="sans-serif" font-size="14" lengthAdjust="spacingAndGlyphs" textLength="45" x="272.207" y="25.9951">State2</text><ellipse cx="293.707" cy="503" fill="none" filter="url(#f1wxxjyieah60b)" rx="10" ry="10" style="stroke: #000000; stroke-width: 1.0;"/><ellipse cx="294.207" cy="503.5" fill="#000000" rx="6" ry="6" style="stroke: none; stroke-width: 1.0;"/><rect fill="#FEFECE" filter="url(#f1wxxjyieah60b)" height="281.2969" rx="12.5" ry="12.5" style="stroke: #A80036; stroke-width: 1.5;" width="331" x="129.207" y="135"/><rect fill="#FFFFFF" height="249" rx="12.5" ry="12.5" style="stroke: #FFFFFF; stroke-width: 1.0;" width="325" x="132.207" y="164.2969"/><line style="stroke: #A80036; stroke-width: 1.5;" x1="129.207" x2="460.207" y1="161.2969" y2="161.2969"/><text fill="#000000" font-family="sans-serif" font-size="14" lengthAdjust="spacingAndGlyphs" textLength="45" x="272.207" y="152.9951">State3</text><rect fill="#FEFECE" filter="url(#f1wxxjyieah60b)" height="66.5625" rx="12.5" ry="12.5" style="stroke: #A80036; stroke-width: 1.5;" width="195" x="140.207" y="231.2969"/><line style="stroke: #A80036; stroke-width: 1.5;" x1="140.207" x2="335.207" y1="273.8906" y2="273.8906"/><text fill="#000000" font-family="sans-serif" font-size="14" lengthAdjust="spacingAndGlyphs" textLength="175" x="150.207" y="249.292">Accumulate Enough Data</text><text fill="#000000" font-family="sans-serif" font-size="14" lengthAdjust="spacingAndGlyphs" textLength="118" x="178.707" y="265.5889">Long State Name</text><text fill="#000000" font-family="sans-serif" font-size="12" lengthAdjust="spacingAndGlyphs" textLength="64" x="145.207" y="290.0293">Just a test</text><ellipse cx="237.707" cy="184.2969" fill="#000000" filter="url(#f1wxxjyieah60b)" rx="10" ry="10" style="stroke: none; stroke-width: 1.0;"/><rect fill="#FEFECE" filter="url(#f1wxxjyieah60b)" height="50" rx="12.5" ry="12.5" style="stroke: #A80036; stroke-width: 1.5;" width="108" x="183.707" y="351.2969"/><line style="stroke: #A80036; stroke-width: 1.5;" x1="183.707" x2="291.707" y1="377.5938" y2="377.5938"/><text fill="#000000" font-family="sans-serif" font-size="14" lengthAdjust="spacingAndGlyphs" textLength="88" x="193.707" y="369.292">ProcessData</text><!--MD5=[cbbb8dc237c8185397a1ccf2b0af3080]
link *start*State3 to long1--><path d="M237.707,194.3019 C237.707,202.1949 237.707,214.2299 237.707,226.0769 " fill="none" id="*start*State3-&gt;long1" style="stroke: #A80036; stroke-width: 1.0;"/><polygon fill="#A80036" points="237.707,231.1309,241.707,222.1309,237.707,226.1309,233.707,222.1309,237.707,231.1309" style="stroke: #A80036; stroke-width: 1.0;"/><!--MD5=[cd06514976a2197e7c66cb27013135c0]
link long1 to long1--><path d="M335.452,256.5949 C346.241,258.1529 353.207,260.8869 353.207,264.7969 C353.207,268.0349 348.43,270.4669 340.66,272.0919 " fill="none" id="long1-&gt;long1" style="stroke: #A80036; stroke-width: 1.0;"/><polygon fill="#A80036" points="335.452,272.9989,345.0052,275.394,340.3777,272.1403,343.6315,267.5129,335.452,272.9989" style="stroke: #A80036; stroke-width: 1.0;"/><text fill="#000000" font-family="sans-serif" font-size="13" lengthAdjust="spacingAndGlyphs" textLength="62" x="359.207" y="269.3638">New Data</text><!--MD5=[02e543224095a440a3409c6f97e15d1f]
link long1 to ProcessData--><path d="M237.707,298.3539 C237.707,313.4014 237.707,331.141 237.707,345.7924 " fill="none" id="long1-&gt;ProcessData" style="stroke: #A80036; stroke-width: 1.0;"/><polygon fill="#A80036" points="237.707,351.0399,241.707,342.0399,237.707,346.0399,233.707,342.0399,237.707,351.0399" style="stroke: #A80036; stroke-width: 1.0;"/><text fill="#000000" font-family="sans-serif" font-size="13" lengthAdjust="spacingAndGlyphs" textLength="83" x="238.707" y="329.3638">Enough Data</text><!--MD5=[66d395c09c4ecf822e4ea2e5636ede2b]
reverse link State1 to *start--><path d="M570.52,33 C580.487,33 590.454,33 600.421,33 " fill="none" id="State1&lt;-*start" style="stroke: #A80036; stroke-width: 1.0;"/><polygon fill="#A80036" points="565.308,33,574.308,37,570.308,33,574.308,29,565.308,33" style="stroke: #A80036; stroke-width: 1.0;"/><!--MD5=[cf27e604831d7c90976753d62a53172b]
reverse link State2 to State1--><path d="M332.507,33 C378.781,33 456.369,33 500.125,33 " fill="none" id="State2&lt;-State1" style="stroke: #A80036; stroke-width: 1.0;"/><polygon fill="#A80036" points="327.3,33,336.3,37,332.3,33,336.3,29,327.3,33" style="stroke: #A80036; stroke-width: 1.0;"/><text fill="#000000" font-family="sans-serif" font-size="13" lengthAdjust="spacingAndGlyphs" textLength="71" x="378.207" y="26.0669">Succeeded</text><!--MD5=[ca1046a354e184ac9d197a073cc82934]
link State1 to *end--><path d="M542.633,58.345 C567.426,123.457 624.55,304.243 544.707,416 C488.097,495.2361 353.814,502.2531 308.749,502.2934 " fill="none" id="State1-&gt;*end" style="stroke: #A80036; stroke-width: 1.0;"/><polygon fill="#A80036" points="303.707,502.2681,312.6875,506.3118,308.7069,502.2924,312.7263,498.3119,303.707,502.2681" style="stroke: #A80036; stroke-width: 1.0;"/><text fill="#000000" font-family="sans-serif" font-size="13" lengthAdjust="spacingAndGlyphs" textLength="51" x="585.707" y="280.0669">Aborted</text><!--MD5=[428d136baf6462f9e03ffacdcb621855]
link State2 to State3--><path d="M294.707,58.384 C294.707,76.203 294.707,101.991 294.707,129.59 " fill="none" id="State2-&gt;State3" style="stroke: #A80036; stroke-width: 1.0;"/><polygon fill="#A80036" points="294.707,134.763,298.707,125.763,294.707,129.763,290.707,125.763,294.707,134.763" style="stroke: #A80036; stroke-width: 1.0;"/><text fill="#000000" font-family="sans-serif" font-size="13" lengthAdjust="spacingAndGlyphs" textLength="71" x="295.707" y="101.0669">Succeeded</text><!--MD5=[37ebb224bae70bf8df0e6bab9d19d55b]
link State2 to *end--><path d="M262.09,36.95 C208.813,43.726 104.4795,65.622 58.7066,135 C-10.0702,239.245 -12.837,313.634 58.7066,416 C110.856,490.6159 235.076,500.7005 278.447,501.9033 " fill="none" id="State2-&gt;*end" style="stroke: #A80036; stroke-width: 1.0;"/><polygon fill="#A80036" points="283.557,502.0132,274.646,497.8187,278.5582,501.9046,274.4723,505.8168,283.557,502.0132" style="stroke: #A80036; stroke-width: 1.0;"/><text fill="#000000" font-family="sans-serif" font-size="13" lengthAdjust="spacingAndGlyphs" textLength="51" x="59.7066" y="280.0669">Aborted</text><!--MD5=[8ec7ebc35d95dc19dc51ed7d52bc84fe]
link State3 to State3--><path d="M460.271,246.342 C481.325,251.44 495.207,261.159 495.207,275.5 C495.207,288.608 483.608,297.855 465.536,303.241 " fill="none" id="State3-&gt;State3" style="stroke: #A80036; stroke-width: 1.0;"/><polygon fill="#A80036" points="460.271,304.658,470.0011,306.1827,465.0993,303.3591,467.9229,298.4573,460.271,304.658" style="stroke: #A80036; stroke-width: 1.0;"/><text fill="#000000" font-family="sans-serif" font-size="13" lengthAdjust="spacingAndGlyphs" textLength="37" x="501.207" y="280.0669">Failed</text><!--MD5=[0ea1e5ee684c4e9667d1229adf70964c]
link State3 to *end--><path d="M241.169,416.104 C238.604,426.1227 236.398,436.155 234.707,446 C233.428,453.4465 231.128,456.3455 234.707,463 C244.132,480.5294 265.276,491.496 279.519,497.1829 " fill="none" id="State3-&gt;*end" style="stroke: #A80036; stroke-width: 1.0;"/><polygon fill="#A80036" points="284.42,499.0415,277.4249,492.1083,279.7453,497.2673,274.5863,499.5877,284.42,499.0415" style="stroke: #A80036; stroke-width: 1.0;"/><text fill="#000000" font-family="sans-serif" font-size="13" lengthAdjust="spacingAndGlyphs" textLength="71" x="235.707" y="459.0669">Succeeded</text><!--MD5=[0ea1e5ee684c4e9667d1229adf70964c]
link State3 to *end--><path d="M316.761,416.1033 C316.518,432.0088 315.02,447.916 311.707,463 C309.679,472.2319 305.247,481.8826 301.288,489.2742 " fill="none" id="State3-&gt;*end-1" style="stroke: #A80036; stroke-width: 1.0;"/><polygon fill="#A80036" points="298.658,493.9977,306.5308,488.08,301.0902,489.6291,299.541,484.1885,298.658,493.9977" style="stroke: #A80036; stroke-width: 1.0;"/><text fill="#000000" font-family="sans-serif" font-size="13" lengthAdjust="spacingAndGlyphs" textLength="51" x="315.707" y="459.0669">Aborted</text><!--MD5=[30f4cafb4889043224c7ccb15c5c33e9]
@startuml
[*] -left-> State1
State1 -left-> State2 : Succeeded
State1 - -> [*] : Aborted
State2 - -> State3 : Succeeded
State2 - -> [*] : Aborted
state State3 {
  state "Accumulate Enough Data\nLong State Name" as long1
  long1 : Just a test
  [*] - -> long1
  long1 - -> long1 : New Data
  long1 - -> ProcessData : Enough Data
}
State3 - -> State3 : Failed
State3 - -> [*] : Succeeded
State3 - -> [*] : Aborted
@enduml

PlantUML version 1.2020.02(Sun Mar 01 10:22:07 UTC 2020)
(GPL source distribution)
Java Runtime: Java(TM) SE Runtime Environment
JVM: Java HotSpot(TM) 64-Bit Server VM
Java Version: 1.7.0_25-b15
Operating System: Linux
Default Encoding: UTF-8
Language: en
Country: US
--></g></svg>