<?xml version="1.0" encoding="UTF-8" standalone="no"?><svg xmlns="http://www.w3.org/2000/svg" xmlns:xlink="http://www.w3.org/1999/xlink" contentScriptType="application/ecmascript" contentStyleType="text/css" height="427px" preserveAspectRatio="none" style="width:656px;height:427px;" version="1.1" viewBox="0 0 656 427" width="656px" zoomAndPan="magnify"><defs><filter height="300%" id="fr8k0wtucxsbs" width="300%" x="-1" y="-1"><feGaussianBlur result="blurOut" stdDeviation="2.0"/><feColorMatrix in="blurOut" result="blurOut2" type="matrix" values="0 0 0 0 0 0 0 0 0 0 0 0 0 0 0 0 0 0 .4 0"/><feOffset dx="4.0" dy="4.0" in="blurOut2" result="blurOut3"/><feBlend in="SourceGraphic" in2="blurOut3" mode="normal"/></filter></defs><g><!--MD5=[262aabfe314dcb38308ea550cce12173]
cluster Some Group--><polygon fill="#FFFFFF" filter="url(#fr8k0wtucxsbs)" points="22,24,126,24,133,46.2969,440,46.2969,440,111,22,111,22,24" style="stroke: #000000; stroke-width: 1.5;"/><line style="stroke: #000000; stroke-width: 1.5;" x1="22" x2="133" y1="46.2969" y2="46.2969"/><text fill="#000000" font-family="sans-serif" font-size="14" font-weight="bold" lengthAdjust="spacingAndGlyphs" textLength="98" x="26" y="38.9951">Some Group</text><!--MD5=[a809f7b457cbc4d947186a4bb863b06b]
cluster Other Groups--><rect fill="#FFFFFF" filter="url(#fr8k0wtucxsbs)" height="87" style="stroke: #000000; stroke-width: 1.5;" width="245" x="32" y="193"/><text fill="#000000" font-family="sans-serif" font-size="14" font-weight="bold" lengthAdjust="spacingAndGlyphs" textLength="108" x="100.5" y="207.9951">Other Groups</text><path d="M309.0481,221.8457 C312.9356,214.7351 318.2812,213.8656 324.3338,219.1827 C328.6317,212.9278 332.5722,211.6603 337.4956,218.5566 C341.7092,213.4089 347.1246,212.6775 350.6872,219.2869 C353.1034,211.0713 360.1595,210.3845 365.1521,216.7269 C369.7233,210.4716 374.834,211.05 378.6982,217.4818 C382.271,211.7671 388.1372,211.9171 390.9555,218.2495 C396.2702,211.2001 401.7692,212.207 405.4248,219.8801 C409.852,214.3152 416.1759,214.223 418.6695,221.8252 C424.2416,225.2831 425.142,229.9328 418.7966,233.5203 C425.7739,237.6967 426.1859,242.3416 419.995,247.636 C424.5775,251.9389 425.546,255.5685 419.1175,259.023 C424.9702,263.6013 425.8186,268.9222 418.7438,273.1588 C415.5835,280.506 410.2928,282.8534 404.3331,275.9996 C401.2217,283.6894 395.6012,283.7575 390.8141,277.6405 C386.3842,282.8848 382.2666,283.5793 377.8115,277.6699 C375.1967,285.2119 370.3162,287.0276 364.2794,281.1105 C359.8349,286.2233 352.8127,286.4179 350.4536,278.8387 C344.8646,285.0367 340.4544,284.7918 336.6906,277.0382 C332.4433,281.9807 327.9539,282.5854 324.6375,276.0597 C318.6589,281.3854 314.6339,280.3895 311.1453,273.344 C303.4732,271.0791 300.7095,265.8642 306.2031,259.0478 C300.1096,257.1029 298.9837,251.1271 303.9365,247.0886 C297.342,242.2618 299.2639,236.5405 306.0306,233.8228 C301.7841,228.8586 302.4534,224.0785 309.0481,221.8457 " fill="#FFFFFF" style="stroke: #000000; stroke-width: 1.5;"/><!--MD5=[a8e31809c94bd3920922c17a126bb0b3]
cluster MySql--><path d="M449,145 C449,135 546.5,135 546.5,135 C546.5,135 644,135 644,145 L644,405 C644,415 546.5,415 546.5,415 C546.5,415 449,415 449,405 L449,145 " fill="#FFFFFF" filter="url(#fr8k0wtucxsbs)" style="stroke: #000000; stroke-width: 1.5;"/><path d="M449,145 C449,155 546.5,155 546.5,155 C546.5,155 644,155 644,145 " fill="none" style="stroke: #000000; stroke-width: 1.5;"/><text fill="#000000" font-family="sans-serif" font-size="14" font-weight="bold" lengthAdjust="spacingAndGlyphs" textLength="46" x="523.5" y="169.9951">MySql</text><!--MD5=[57a7dd60b0970f41fd8892a58576fbc8]
cluster This is my folder--><polygon fill="#FFFFFF" filter="url(#fr8k0wtucxsbs)" points="473,193,610,193,617,215.2969,620,215.2969,620,280,473,280,473,193" style="stroke: #000000; stroke-width: 1.5;"/><line style="stroke: #000000; stroke-width: 1.5;" x1="473" x2="617" y1="215.2969" y2="215.2969"/><text fill="#000000" font-family="sans-serif" font-size="14" font-weight="bold" lengthAdjust="spacingAndGlyphs" textLength="131" x="477" y="207.9951">This is my folder</text><!--MD5=[b098bf3b49ab5940c6091a421f0675e2]
cluster Foo--><rect fill="#FFFFFF" filter="url(#fr8k0wtucxsbs)" height="87" style="stroke: #000000; stroke-width: 1.5;" width="108" x="473" y="304"/><path d="M512,305 L512,313.2969 L502,323.2969 L473,323.2969 " fill="none" style="stroke: #000000; stroke-width: 1.5;"/><text fill="#000000" font-family="sans-serif" font-size="14" font-weight="bold" lengthAdjust="spacingAndGlyphs" textLength="29" x="476" y="317.9951">Foo</text><!--MD5=[96f7e1299d4a43069e6ed32352fcac20]
entity HTTP--><ellipse cx="218" cy="77" fill="#FEFECE" filter="url(#fr8k0wtucxsbs)" rx="8" ry="8" style="stroke: #A80036; stroke-width: 2.0;"/><text fill="#000000" font-family="sans-serif" font-size="14" lengthAdjust="spacingAndGlyphs" textLength="37" x="199.5" y="106.9951">HTTP</text><!--MD5=[cbd7cda55f2530e2efe43ec72c097853]
entity First Component--><rect fill="#FEFECE" filter="url(#fr8k0wtucxsbs)" height="36.2969" style="stroke: #A80036; stroke-width: 1.5;" width="135" x="38.5" y="59"/><rect fill="#FEFECE" height="5" style="stroke: #A80036; stroke-width: 1.5;" width="10" x="33.5" y="64"/><rect fill="#FEFECE" height="5" style="stroke: #A80036; stroke-width: 1.5;" width="10" x="33.5" y="85.2969"/><text fill="#000000" font-family="sans-serif" font-size="14" lengthAdjust="spacingAndGlyphs" textLength="115" x="48.5" y="81.9951">First Component</text><!--MD5=[b9d11f23832c1491231c5b33e55ab8c6]
entity Another Component--><rect fill="#FEFECE" filter="url(#fr8k0wtucxsbs)" height="36.2969" style="stroke: #A80036; stroke-width: 1.5;" width="161" x="262.5" y="59"/><rect fill="#FEFECE" height="5" style="stroke: #A80036; stroke-width: 1.5;" width="10" x="257.5" y="64"/><rect fill="#FEFECE" height="5" style="stroke: #A80036; stroke-width: 1.5;" width="10" x="257.5" y="85.2969"/><text fill="#000000" font-family="sans-serif" font-size="14" lengthAdjust="spacingAndGlyphs" textLength="141" x="272.5" y="81.9951">Another Component</text><!--MD5=[76af18d92d7d7c0f7ebd8f4f605ac5aa]
entity FTP--><ellipse cx="57" cy="246" fill="#FEFECE" filter="url(#fr8k0wtucxsbs)" rx="8" ry="8" style="stroke: #A80036; stroke-width: 2.0;"/><text fill="#000000" font-family="sans-serif" font-size="14" lengthAdjust="spacingAndGlyphs" textLength="26" x="44" y="275.9951">FTP</text><!--MD5=[0e2cc1aee2c7f52697e111b4fb84546c]
entity Second Component--><rect fill="#FEFECE" filter="url(#fr8k0wtucxsbs)" height="36.2969" style="stroke: #A80036; stroke-width: 1.5;" width="159" x="101.5" y="228"/><rect fill="#FEFECE" height="5" style="stroke: #A80036; stroke-width: 1.5;" width="10" x="96.5" y="233"/><rect fill="#FEFECE" height="5" style="stroke: #A80036; stroke-width: 1.5;" width="10" x="96.5" y="254.2969"/><text fill="#000000" font-family="sans-serif" font-size="14" lengthAdjust="spacingAndGlyphs" textLength="139" x="111.5" y="250.9951">Second Component</text><!--MD5=[243c1e580c31013c48b02624e18b25a7]
entity Example 1--><rect fill="#FEFECE" filter="url(#fr8k0wtucxsbs)" height="36.2969" style="stroke: #A80036; stroke-width: 1.5;" width="91" x="317.5" y="228"/><rect fill="#FEFECE" height="5" style="stroke: #A80036; stroke-width: 1.5;" width="10" x="312.5" y="233"/><rect fill="#FEFECE" height="5" style="stroke: #A80036; stroke-width: 1.5;" width="10" x="312.5" y="254.2969"/><text fill="#000000" font-family="sans-serif" font-size="14" lengthAdjust="spacingAndGlyphs" textLength="71" x="327.5" y="250.9951">Example 1</text><!--MD5=[3e0e08c92570480402984701ab5a6d2d]
entity Folder 3--><rect fill="#FEFECE" filter="url(#fr8k0wtucxsbs)" height="36.2969" style="stroke: #A80036; stroke-width: 1.5;" width="76" x="489" y="228"/><rect fill="#FEFECE" height="5" style="stroke: #A80036; stroke-width: 1.5;" width="10" x="484" y="233"/><rect fill="#FEFECE" height="5" style="stroke: #A80036; stroke-width: 1.5;" width="10" x="484" y="254.2969"/><text fill="#000000" font-family="sans-serif" font-size="14" lengthAdjust="spacingAndGlyphs" textLength="56" x="499" y="250.9951">Folder 3</text><!--MD5=[63877ed85df621d134a6c80fb52dad56]
entity Frame 4--><rect fill="#FEFECE" filter="url(#fr8k0wtucxsbs)" height="36.2969" style="stroke: #A80036; stroke-width: 1.5;" width="76" x="489" y="339"/><rect fill="#FEFECE" height="5" style="stroke: #A80036; stroke-width: 1.5;" width="10" x="484" y="344"/><rect fill="#FEFECE" height="5" style="stroke: #A80036; stroke-width: 1.5;" width="10" x="484" y="365.2969"/><text fill="#000000" font-family="sans-serif" font-size="14" lengthAdjust="spacingAndGlyphs" textLength="56" x="499" y="361.9951">Frame 4</text><!--MD5=[46d996859f59e5baf77956ce93023cee]
link HTTP to First Component--><path d="M208.679,77 C197.057,77 185.435,77 173.812,77 " fill="none" id="HTTP-First Component" style="stroke: #A80036; stroke-width: 1.0;"/><!--MD5=[1966a42bb49d59057147dbda06282f4b]
link FTP to Second Component--><path d="M66.2031,246 C77.8622,246 89.5212,246 101.1803,246 " fill="none" id="FTP-Second Component" style="stroke: #A80036; stroke-width: 1.0;"/><!--MD5=[d3aefbd8005e27b21e7ce98ddd948193]
link First Component to FTP--><path d="M97.1995,95.355 C92.7821,104.579 87.6162,116.213 84,127 C71.5605,164.105 62.9318,209.667 59.1519,231.748 " fill="none" id="First Component-&gt;FTP" style="stroke: #A80036; stroke-width: 1.0;"/><polygon fill="#A80036" points="58.2961,236.837,63.7323,228.6243,59.1247,231.9061,55.8429,227.2986,58.2961,236.837" style="stroke: #A80036; stroke-width: 1.0;"/><!--MD5=[efc1ffe8b578a0fb156c7bce303319bb]
link Another Component to Example 1--><path d="M345.065,95.243 C348.703,125.619 356.251,188.645 360.298,222.438 " fill="none" id="Another Component-&gt;Example 1" style="stroke: #A80036; stroke-width: 1.0;"/><polygon fill="#A80036" points="360.916,227.601,363.8179,218.1894,360.3217,222.6364,355.8746,219.1403,360.916,227.601" style="stroke: #A80036; stroke-width: 1.0;"/><!--MD5=[7ec8393a78a133520e8846dd05a7857a]
link Example 1 to Folder 3--><path d="M408.805,246 C433.661,246 458.518,246 483.375,246 " fill="none" id="Example 1-&gt;Folder 3" style="stroke: #A80036; stroke-width: 1.0;"/><polygon fill="#A80036" points="488.679,246,479.679,242,483.679,246,479.679,250,488.679,246" style="stroke: #A80036; stroke-width: 1.0;"/><!--MD5=[b96c7096199393c1414a8b4e9ed2c30f]
link Folder 3 to Frame 4--><path d="M527,264.031 C527,282.798 527,313.055 527,333.6998 " fill="none" id="Folder 3-&gt;Frame 4" style="stroke: #A80036; stroke-width: 1.0;"/><polygon fill="#A80036" points="527,338.7286,531,329.7286,527,333.7286,523,329.7286,527,338.7286" style="stroke: #A80036; stroke-width: 1.0;"/><!--MD5=[78186e27e38c9587c500ad9228d622b5]
@startuml
package "Some Group" {
  HTTP - [First Component]
  [Another Component]
}
rectangle "Other Groups" {
  FTP - [Second Component]
  [First Component] - -> FTP
}
cloud {
  [Example 1]
}
database "MySql" {
  folder "This is my folder" {
    [Folder 3]
  }
  frame "Foo" {
    [Frame 4]
  }
}
[Another Component] - -> [Example 1]
[Example 1] -right-> [Folder 3]
[Folder 3] - -> [Frame 4]
@enduml

PlantUML version 1.2020.02(Sun Mar 01 10:22:07 UTC 2020)
(GPL source distribution)
Java Runtime: Java(TM) SE Runtime Environment
JVM: Java HotSpot(TM) 64-Bit Server VM
Java Version: 1.7.0_25-b15
Operating System: Linux
Default Encoding: UTF-8
Language: en
Country: US
--></g></svg>