<?xml version="1.0" encoding="UTF-8" standalone="no"?><svg xmlns="http://www.w3.org/2000/svg" xmlns:xlink="http://www.w3.org/1999/xlink" contentScriptType="application/ecmascript" contentStyleType="text/css" height="262px" preserveAspectRatio="none" style="width:554px;height:262px;" version="1.1" viewBox="0 0 554 262" width="554px" zoomAndPan="magnify"><defs><filter height="300%" id="fgdhnm6vcqt8g" width="300%" x="-1" y="-1"><feGaussianBlur result="blurOut" stdDeviation="2.0"/><feColorMatrix in="blurOut" result="blurOut2" type="matrix" values="0 0 0 0 0 0 0 0 0 0 0 0 0 0 0 0 0 0 .4 0"/><feOffset dx="4.0" dy="4.0" in="blurOut2" result="blurOut3"/><feBlend in="SourceGraphic" in2="blurOut3" mode="normal"/></filter></defs><g><!--MD5=[728d23d58e22fa55ea5a0544ed140874]
cluster net.dummy--><polygon fill="#FFFFFF" filter="url(#fgdhnm6vcqt8g)" points="22,24,116,24,123,46.2969,136,46.2969,136,250,22,250,22,24" style="stroke: #000000; stroke-width: 1.5;"/><line style="stroke: #000000; stroke-width: 1.5;" x1="22" x2="123" y1="46.2969" y2="46.2969"/><text fill="#000000" font-family="sans-serif" font-size="14" font-weight="bold" lengthAdjust="spacingAndGlyphs" textLength="88" x="26" y="38.9951">net.dummy</text><!--MD5=[33e59a955278c32565a5bf6f302dc15e]
cluster net.foo--><polygon fill="#FFFFFF" filter="url(#fgdhnm6vcqt8g)" points="160,151,223,151,230,173.2969,268,173.2969,268,250,160,250,160,151" style="stroke: #000000; stroke-width: 1.5;"/><line style="stroke: #000000; stroke-width: 1.5;" x1="160" x2="230" y1="173.2969" y2="173.2969"/><text fill="#000000" font-family="sans-serif" font-size="14" font-weight="bold" lengthAdjust="spacingAndGlyphs" textLength="57" x="164" y="165.9951">net.foo</text><!--MD5=[a192a6f29c441cea5ef200ac5f138a29]
cluster net.unused--><polygon fill="#FFFFFF" filter="url(#fgdhnm6vcqt8g)" points="292,151,388,151,395,173.2969,400,173.2969,400,250,292,250,292,151" style="stroke: #000000; stroke-width: 1.5;"/><line style="stroke: #000000; stroke-width: 1.5;" x1="292" x2="395" y1="173.2969" y2="173.2969"/><text fill="#000000" font-family="sans-serif" font-size="14" font-weight="bold" lengthAdjust="spacingAndGlyphs" textLength="90" x="296" y="165.9951">net.unused</text><!--MD5=[cb3a15f9f15e1ea33d1c370015e332c8]
class net.dummy.Person--><rect fill="#FEFECE" filter="url(#fgdhnm6vcqt8g)" height="48" id="net.dummy.Person" style="stroke: #A80036; stroke-width: 1.5;" width="76" x="44" y="186"/><ellipse cx="59" cy="202" fill="#ADD1B2" rx="11" ry="11" style="stroke: #A80036; stroke-width: 1.0;"/><path d="M61.3438,197.6719 L61.5156,197.75 C61.7344,197.4375 61.9375,197.3438 62.2344,197.3438 C62.5313,197.3438 62.8125,197.4844 62.9688,197.75 C63.0625,197.9063 63.0781,198.0313 63.0781,198.4688 L63.0781,199.8906 C63.0781,200.3125 63.0469,200.5 62.9375,200.6563 C62.7656,200.875 62.5,201.0156 62.2344,201.0156 C62.0156,201.0156 61.7813,200.9063 61.6406,200.7656 C61.5,200.6406 61.4688,200.5156 61.4063,200.1094 C61.3125,199.7031 61.1406,199.4844 60.6563,199.2031 C60.1875,198.9531 59.5781,198.7969 59,198.7969 C57.2656,198.7969 56.0156,200.1094 56.0156,201.8906 L56.0156,202.9844 C56.0156,204.6875 57.3125,205.7813 59.3594,205.7813 C60.125,205.7813 60.8125,205.6563 61.2344,205.3906 C61.4219,205.2969 61.4219,205.2969 61.875,204.8125 C62.0625,204.625 62.2656,204.5469 62.4844,204.5469 C62.9531,204.5469 63.3438,204.9375 63.3438,205.3906 C63.3438,205.7813 63.0156,206.2344 62.4375,206.6406 C61.6875,207.1875 60.5313,207.4844 59.3125,207.4844 C56.4219,207.4844 54.3125,205.5938 54.3125,203.0156 L54.3125,201.8906 C54.3125,199.1719 56.3125,197.0938 58.9375,197.0938 C59.8125,197.0938 60.4063,197.2344 61.3438,197.6719 Z "/><text fill="#000000" font-family="sans-serif" font-size="12" lengthAdjust="spacingAndGlyphs" textLength="44" x="73" y="206.1543">Person</text><line style="stroke: #A80036; stroke-width: 1.5;" x1="45" x2="119" y1="218" y2="218"/><line style="stroke: #A80036; stroke-width: 1.5;" x1="45" x2="119" y1="226" y2="226"/><!--MD5=[8ac4e197c3b047d8b0ccbf03414837ae]
class net.dummy.Meeting--><rect fill="#FEFECE" filter="url(#fgdhnm6vcqt8g)" height="48" id="net.dummy.Meeting" style="stroke: #A80036; stroke-width: 1.5;" width="82" x="38" y="59"/><ellipse cx="53" cy="75" fill="#ADD1B2" rx="11" ry="11" style="stroke: #A80036; stroke-width: 1.0;"/><path d="M55.3438,70.6719 L55.5156,70.75 C55.7344,70.4375 55.9375,70.3438 56.2344,70.3438 C56.5313,70.3438 56.8125,70.4844 56.9688,70.75 C57.0625,70.9063 57.0781,71.0313 57.0781,71.4688 L57.0781,72.8906 C57.0781,73.3125 57.0469,73.5 56.9375,73.6563 C56.7656,73.875 56.5,74.0156 56.2344,74.0156 C56.0156,74.0156 55.7813,73.9063 55.6406,73.7656 C55.5,73.6406 55.4688,73.5156 55.4063,73.1094 C55.3125,72.7031 55.1406,72.4844 54.6563,72.2031 C54.1875,71.9531 53.5781,71.7969 53,71.7969 C51.2656,71.7969 50.0156,73.1094 50.0156,74.8906 L50.0156,75.9844 C50.0156,77.6875 51.3125,78.7813 53.3594,78.7813 C54.125,78.7813 54.8125,78.6563 55.2344,78.3906 C55.4219,78.2969 55.4219,78.2969 55.875,77.8125 C56.0625,77.625 56.2656,77.5469 56.4844,77.5469 C56.9531,77.5469 57.3438,77.9375 57.3438,78.3906 C57.3438,78.7813 57.0156,79.2344 56.4375,79.6406 C55.6875,80.1875 54.5313,80.4844 53.3125,80.4844 C50.4219,80.4844 48.3125,78.5938 48.3125,76.0156 L48.3125,74.8906 C48.3125,72.1719 50.3125,70.0938 52.9375,70.0938 C53.8125,70.0938 54.4063,70.2344 55.3438,70.6719 Z "/><text fill="#000000" font-family="sans-serif" font-size="12" lengthAdjust="spacingAndGlyphs" textLength="50" x="67" y="79.1543">Meeting</text><line style="stroke: #A80036; stroke-width: 1.5;" x1="39" x2="119" y1="91" y2="91"/><line style="stroke: #A80036; stroke-width: 1.5;" x1="39" x2="119" y1="99" y2="99"/><!--MD5=[39b7869a7bbdf1e166c12fc90d8f21cb]
class net.foo.Person--><rect fill="#FEFECE" filter="url(#fgdhnm6vcqt8g)" height="48" id="net.foo.Person" style="stroke: #A80036; stroke-width: 1.5;" width="76" x="176" y="186"/><ellipse cx="191" cy="202" fill="#ADD1B2" rx="11" ry="11" style="stroke: #A80036; stroke-width: 1.0;"/><path d="M193.3438,197.6719 L193.5156,197.75 C193.7344,197.4375 193.9375,197.3438 194.2344,197.3438 C194.5313,197.3438 194.8125,197.4844 194.9688,197.75 C195.0625,197.9063 195.0781,198.0313 195.0781,198.4688 L195.0781,199.8906 C195.0781,200.3125 195.0469,200.5 194.9375,200.6563 C194.7656,200.875 194.5,201.0156 194.2344,201.0156 C194.0156,201.0156 193.7813,200.9063 193.6406,200.7656 C193.5,200.6406 193.4688,200.5156 193.4063,200.1094 C193.3125,199.7031 193.1406,199.4844 192.6563,199.2031 C192.1875,198.9531 191.5781,198.7969 191,198.7969 C189.2656,198.7969 188.0156,200.1094 188.0156,201.8906 L188.0156,202.9844 C188.0156,204.6875 189.3125,205.7813 191.3594,205.7813 C192.125,205.7813 192.8125,205.6563 193.2344,205.3906 C193.4219,205.2969 193.4219,205.2969 193.875,204.8125 C194.0625,204.625 194.2656,204.5469 194.4844,204.5469 C194.9531,204.5469 195.3438,204.9375 195.3438,205.3906 C195.3438,205.7813 195.0156,206.2344 194.4375,206.6406 C193.6875,207.1875 192.5313,207.4844 191.3125,207.4844 C188.4219,207.4844 186.3125,205.5938 186.3125,203.0156 L186.3125,201.8906 C186.3125,199.1719 188.3125,197.0938 190.9375,197.0938 C191.8125,197.0938 192.4063,197.2344 193.3438,197.6719 Z "/><text fill="#000000" font-family="sans-serif" font-size="12" lengthAdjust="spacingAndGlyphs" textLength="44" x="205" y="206.1543">Person</text><line style="stroke: #A80036; stroke-width: 1.5;" x1="177" x2="251" y1="218" y2="218"/><line style="stroke: #A80036; stroke-width: 1.5;" x1="177" x2="251" y1="226" y2="226"/><!--MD5=[5f30d223f747d8ac33b5eb84f5743c2a]
class net.unused.Person--><rect fill="#FEFECE" filter="url(#fgdhnm6vcqt8g)" height="48" id="net.unused.Person" style="stroke: #A80036; stroke-width: 1.5;" width="76" x="308" y="186"/><ellipse cx="323" cy="202" fill="#ADD1B2" rx="11" ry="11" style="stroke: #A80036; stroke-width: 1.0;"/><path d="M325.3438,197.6719 L325.5156,197.75 C325.7344,197.4375 325.9375,197.3438 326.2344,197.3438 C326.5313,197.3438 326.8125,197.4844 326.9688,197.75 C327.0625,197.9063 327.0781,198.0313 327.0781,198.4688 L327.0781,199.8906 C327.0781,200.3125 327.0469,200.5 326.9375,200.6563 C326.7656,200.875 326.5,201.0156 326.2344,201.0156 C326.0156,201.0156 325.7813,200.9063 325.6406,200.7656 C325.5,200.6406 325.4688,200.5156 325.4063,200.1094 C325.3125,199.7031 325.1406,199.4844 324.6563,199.2031 C324.1875,198.9531 323.5781,198.7969 323,198.7969 C321.2656,198.7969 320.0156,200.1094 320.0156,201.8906 L320.0156,202.9844 C320.0156,204.6875 321.3125,205.7813 323.3594,205.7813 C324.125,205.7813 324.8125,205.6563 325.2344,205.3906 C325.4219,205.2969 325.4219,205.2969 325.875,204.8125 C326.0625,204.625 326.2656,204.5469 326.4844,204.5469 C326.9531,204.5469 327.3438,204.9375 327.3438,205.3906 C327.3438,205.7813 327.0156,206.2344 326.4375,206.6406 C325.6875,207.1875 324.5313,207.4844 323.3125,207.4844 C320.4219,207.4844 318.3125,205.5938 318.3125,203.0156 L318.3125,201.8906 C318.3125,199.1719 320.3125,197.0938 322.9375,197.0938 C323.8125,197.0938 324.4063,197.2344 325.3438,197.6719 Z "/><text fill="#000000" font-family="sans-serif" font-size="12" lengthAdjust="spacingAndGlyphs" textLength="44" x="337" y="206.1543">Person</text><line style="stroke: #A80036; stroke-width: 1.5;" x1="309" x2="383" y1="218" y2="218"/><line style="stroke: #A80036; stroke-width: 1.5;" x1="309" x2="383" y1="226" y2="226"/><!--MD5=[ab8871ed637f40707b866ba6597734bc]
class ArrayList--><rect fill="#FEFECE" filter="url(#fgdhnm6vcqt8g)" height="73.6094" id="ArrayList" style="stroke: #A80036; stroke-width: 1.5;" width="132" x="290" y="46"/><ellipse cx="325.7" cy="62" fill="#A9DCDF" rx="11" ry="11" style="stroke: #A80036; stroke-width: 1.0;"/><path d="M327.2781,63.8125 L323.2313,63.8125 L322.8406,64.7969 L323.2313,64.7969 C323.6844,64.7969 323.825,64.8281 323.9969,64.9531 C324.2156,65.125 324.3406,65.375 324.3406,65.6563 C324.3406,65.9375 324.2,66.2344 323.9344,66.375 C323.8094,66.4688 323.5906,66.5 323.2313,66.5 L320.9656,66.5 C320.2156,66.5 319.8406,66.2188 319.8406,65.6563 C319.8406,65.3594 319.9969,65.0781 320.2469,64.9219 C320.4031,64.8125 320.5594,64.7969 320.9813,64.7969 L323.6219,58.2813 L322.5438,58.2813 C322.1063,58.2813 321.9344,58.25 321.7625,58.1406 C321.5438,57.9688 321.4031,57.7188 321.4031,57.4375 C321.4031,57.1563 321.5594,56.875 321.8094,56.7031 C321.9656,56.6094 322.0906,56.5938 322.5438,56.5938 L326.2156,56.5938 L329.6063,64.7969 C330.075,64.7969 330.2313,64.8281 330.4031,64.9688 C330.6219,65.125 330.7625,65.375 330.7625,65.6563 C330.7625,65.9375 330.6063,66.2344 330.3563,66.375 C330.2156,66.4688 329.9969,66.5 329.6375,66.5 L327.2781,66.5 C326.8563,66.5 326.6531,66.4531 326.5125,66.3281 C326.2938,66.1719 326.1531,65.9219 326.1531,65.6563 C326.1531,65.3594 326.3094,65.0781 326.5594,64.9219 C326.7156,64.8125 326.825,64.7969 327.2781,64.7969 L327.6688,64.7969 Z M326.575,62.1094 L325.2469,58.8438 L323.9031,62.1094 Z "/><text fill="#000000" font-family="sans-serif" font-size="12" font-style="italic" lengthAdjust="spacingAndGlyphs" textLength="54" x="344.3" y="66.1543">ArrayList</text><line style="stroke: #A80036; stroke-width: 1.5;" x1="291" x2="421" y1="78" y2="78"/><text fill="#000000" font-family="sans-serif" font-size="11" lengthAdjust="spacingAndGlyphs" textLength="120" x="296" y="92.2104">Object[] elementData</text><line style="stroke: #A80036; stroke-width: 1.5;" x1="291" x2="421" y1="98.8047" y2="98.8047"/><text fill="#000000" font-family="sans-serif" font-size="11" lengthAdjust="spacingAndGlyphs" textLength="30" x="296" y="113.0151">size()</text><!--MD5=[15b68e006199004da79ea2a4d117d8e9]
class TimeUnit--><rect fill="#FEFECE" filter="url(#fgdhnm6vcqt8g)" height="86.4141" id="TimeUnit" style="stroke: #A80036; stroke-width: 1.5;" width="86" x="457" y="40"/><ellipse cx="472" cy="56" fill="#EB937F" rx="11" ry="11" style="stroke: #A80036; stroke-width: 1.0;"/><path d="M470.2969,56.875 L470.2969,59.2969 L474.6563,59.2969 L474.6563,58.4219 C474.6563,57.9375 474.6875,57.7969 474.7969,57.6406 C474.9688,57.3906 475.2344,57.2813 475.5,57.2813 C475.7813,57.2813 476.0625,57.4375 476.2344,57.6875 C476.3125,57.8438 476.3438,57.9844 476.3438,58.4219 L476.3438,61 L468.3438,61 C467.9531,61 467.7188,60.9531 467.5781,60.8281 C467.3594,60.6719 467.2188,60.4219 467.2188,60.1563 C467.2188,59.8594 467.375,59.5938 467.625,59.4219 C467.7813,59.3125 467.9375,59.2969 468.3438,59.2969 L468.5938,59.2969 L468.5938,52.7813 L468.3438,52.7813 C467.9219,52.7813 467.7344,52.75 467.5781,52.6406 C467.3594,52.4688 467.2188,52.2188 467.2188,51.9375 C467.2188,51.6563 467.375,51.3594 467.625,51.2031 C467.7813,51.1094 467.9063,51.0938 468.3438,51.0938 L475.9688,51.0938 L475.9688,53.6406 C475.9688,54.1094 475.9375,54.25 475.8281,54.4219 C475.6563,54.6406 475.3906,54.7813 475.125,54.7813 C474.8438,54.7813 474.5625,54.625 474.3906,54.375 C474.3125,54.2188 474.2813,54.0469 474.2813,53.6406 L474.2813,52.7813 L470.2969,52.7813 L470.2969,55.1875 L471.75,55.1875 L471.75,55.0625 C471.75,54.6094 471.7813,54.4531 471.8906,54.2813 C472.0625,54.0625 472.3281,53.9219 472.5781,53.9219 C473.0313,53.9219 473.3438,54.2344 473.4063,54.7031 C473.4219,54.8594 473.4219,54.9063 473.4219,55.0625 L473.4219,56.9844 C473.4219,57.4375 473.3906,57.5938 473.2656,57.75 C473.1094,57.9688 472.8438,58.1094 472.5938,58.1094 C472.2969,58.1094 472.0156,57.9531 471.8594,57.7031 C471.7813,57.5469 471.75,57.3906 471.75,56.9844 L471.75,56.875 Z "/><text fill="#000000" font-family="sans-serif" font-size="12" lengthAdjust="spacingAndGlyphs" textLength="54" x="486" y="60.1543">TimeUnit</text><line style="stroke: #A80036; stroke-width: 1.5;" x1="458" x2="542" y1="72" y2="72"/><text fill="#000000" font-family="sans-serif" font-size="11" lengthAdjust="spacingAndGlyphs" textLength="30" x="463" y="86.2104">DAYS</text><text fill="#000000" font-family="sans-serif" font-size="11" lengthAdjust="spacingAndGlyphs" textLength="40" x="463" y="99.0151">HOURS</text><text fill="#000000" font-family="sans-serif" font-size="11" lengthAdjust="spacingAndGlyphs" textLength="50" x="463" y="111.8198">MINUTES</text><line style="stroke: #A80036; stroke-width: 1.5;" x1="458" x2="542" y1="118.4141" y2="118.4141"/><!--MD5=[8e57f1f895cc705ad5645d1ac73dc0a2]
class BaseClass--><rect fill="#FEFECE" filter="url(#fgdhnm6vcqt8g)" height="48" id="BaseClass" style="stroke: #A80036; stroke-width: 1.5;" width="93" x="161.5" y="59"/><ellipse cx="176.5" cy="75" fill="#B4A7E5" rx="11" ry="11" style="stroke: #A80036; stroke-width: 1.0;"/><path d="M177.4531,71.7813 L177.4531,78.2969 L179.1719,78.2969 C179.625,78.2969 179.7656,78.3281 179.9375,78.4531 C180.1719,78.625 180.2813,78.875 180.2813,79.1563 C180.2813,79.7188 179.9219,80 179.1719,80 L174.0313,80 C173.625,80 173.4219,79.9531 173.2656,79.8281 C173.0469,79.6719 172.9063,79.4063 172.9063,79.1563 C172.9063,78.8594 173.0625,78.5781 173.3125,78.4219 C173.4688,78.3125 173.5938,78.2969 174.0313,78.2969 L175.75,78.2969 L175.75,71.7813 L174.0313,71.7813 C173.6094,71.7813 173.4219,71.75 173.2656,71.6406 C173.0469,71.4688 172.9063,71.2188 172.9063,70.9375 C172.9063,70.6563 173.0625,70.3594 173.3125,70.2031 C173.4688,70.1094 173.5938,70.0938 174.0313,70.0938 L179.1719,70.0938 C179.625,70.0938 179.7656,70.125 179.9375,70.2344 C180.1719,70.4063 180.2813,70.6719 180.2813,70.9375 C180.2813,71.2344 180.1406,71.5156 179.875,71.6719 C179.75,71.75 179.5625,71.7813 179.1719,71.7813 Z "/><text fill="#000000" font-family="sans-serif" font-size="12" font-style="italic" lengthAdjust="spacingAndGlyphs" textLength="61" x="190.5" y="79.1543">BaseClass</text><line style="stroke: #A80036; stroke-width: 1.5;" x1="162.5" x2="253.5" y1="91" y2="91"/><line style="stroke: #A80036; stroke-width: 1.5;" x1="162.5" x2="253.5" y1="99" y2="99"/><!--MD5=[38d283ab138c7dee77115f9fbc859330]
reverse link BaseClass to net.dummy.Person--><path d="M170.194,121.506 C149.084,142.448 123.456,167.8728 105.279,185.9058 " fill="none" id="BaseClass&lt;-net.dummy.Person" style="stroke: #A80036; stroke-width: 1.0;"/><polygon fill="none" points="165.467,116.335,184.596,107.219,175.327,126.274,165.467,116.335" style="stroke: #A80036; stroke-width: 1.0;"/><!--MD5=[3aad075c01a5f1f4921d0fd2481fc4e0]
reverse link net.dummy.Meeting to net.dummy.Person--><path d="M79.871,120.291 C80.379,141.458 81.0045,167.5227 81.4457,185.9058 " fill="none" id="net.dummy.Meeting&lt;-net.dummy.Person" style="stroke: #A80036; stroke-width: 1.0;"/><polygon fill="#FFFFFF" points="79.5572,107.219,75.7021,113.3131,79.8447,119.2156,83.6998,113.1215,79.5572,107.219" style="stroke: #A80036; stroke-width: 1.0;"/><!--MD5=[5b94dd299fdb64f5042d8ccdd246a8aa]
reverse link BaseClass to net.dummy.Meeting--><path d="M140.999,83 C134.022,83 127.045,83 120.068,83 " fill="none" id="BaseClass&lt;-net.dummy.Meeting" style="stroke: #A80036; stroke-width: 1.0;"/><polygon fill="none" points="141.286,76,161.286,83,141.286,90,141.286,76" style="stroke: #A80036; stroke-width: 1.0;"/><!--MD5=[b57b6e1cdce0b532ba1371e9c7d07ce1]
reverse link net.dummy.Person to net.foo.Person--><path d="M140.181,210 C152.079,210 163.977,210 175.876,210 " fill="none" id="net.dummy.Person&lt;-net.foo.Person" style="stroke: #A80036; stroke-width: 1.0;"/><polygon fill="none" points="140.156,216.9999,120.156,210,140.156,202.9999,140.156,216.9999" style="stroke: #A80036; stroke-width: 1.0;"/><!--MD5=[3949315fc233572465e48cd9e3f6e864]
reverse link BaseClass to net.foo.Person--><path d="M210.083,127.406 C211.028,147.075 212.106,169.5361 212.891,185.9058 " fill="none" id="BaseClass&lt;-net.foo.Person" style="stroke: #A80036; stroke-width: 1.0;"/><polygon fill="none" points="203.082,127.531,209.114,107.219,217.065,126.86,203.082,127.531" style="stroke: #A80036; stroke-width: 1.0;"/><!--MD5=[736f19012fcb2f75c0b04526aeb93c2d]
reverse link net.dummy.Meeting to net.foo.Person--><path d="M113.697,116.127 C137.264,137.949 167.881,166.2971 189.058,185.9058 " fill="none" id="net.dummy.Meeting&lt;-net.foo.Person" style="stroke: #A80036; stroke-width: 1.0;"/><polygon fill="#FFFFFF" points="104.0761,107.219,105.7618,114.2303,112.8821,115.3709,111.1964,108.3596,104.0761,107.219" style="stroke: #A80036; stroke-width: 1.0;"/><!--MD5=[20bb99b6116bfc237a0342da45d84df8]
reverse link BaseClass to net.unused.Person--><path d="M248.734,120.897 C271.981,141.954 300.402,167.6977 320.504,185.9058 " fill="none" id="BaseClass&lt;-net.unused.Person" style="stroke: #A80036; stroke-width: 1.0;"/><polygon fill="none" points="243.757,125.833,233.633,107.219,253.156,115.457,243.757,125.833" style="stroke: #A80036; stroke-width: 1.0;"/><!--MD5=[351c663a4e2ef9dca96ee0fc19600ea2]
@startuml
abstract class ArrayList {
  Object[] elementData
  size()
}
enum TimeUnit {
  DAYS
  HOURS
  MINUTES
}
Interface BaseClass

namespace net.dummy {
    .BaseClass <|- - Person
    Meeting o- - Person

    .BaseClass <|- Meeting
}
namespace net.foo {
  net.dummy.Person  <|- Person
  .BaseClass <|- - Person

  net.dummy.Meeting o- - Person
}
BaseClass <|- - net.unused.Person
@enduml

PlantUML version 1.2020.02(Sun Mar 01 10:22:07 UTC 2020)
(GPL source distribution)
Java Runtime: Java(TM) SE Runtime Environment
JVM: Java HotSpot(TM) 64-Bit Server VM
Java Version: 1.7.0_25-b15
Operating System: Linux
Default Encoding: UTF-8
Language: en
Country: US
--></g></svg>