<?xml version="1.0" encoding="UTF-8" standalone="no"?><svg xmlns="http://www.w3.org/2000/svg" xmlns:xlink="http://www.w3.org/1999/xlink" contentScriptType="application/ecmascript" contentStyleType="text/css" height="273px" preserveAspectRatio="none" style="width:400px;height:273px;" version="1.1" viewBox="0 0 400 273" width="400px" zoomAndPan="magnify"><defs><filter height="300%" id="f5v0q4ws2y4xv" width="300%" x="-1" y="-1"><feGaussianBlur result="blurOut" stdDeviation="2.0"/><feColorMatrix in="blurOut" result="blurOut2" type="matrix" values="0 0 0 0 0 0 0 0 0 0 0 0 0 0 0 0 0 0 .4 0"/><feOffset dx="4.0" dy="4.0" in="blurOut2" result="blurOut3"/><feBlend in="SourceGraphic" in2="blurOut3" mode="normal"/></filter></defs><g><rect fill="#FFFFFF" filter="url(#f5v0q4ws2y4xv)" height="145.6641" style="stroke: #A80036; stroke-width: 1.0;" width="10" x="101" y="69.4297"/><rect fill="#FFFFFF" filter="url(#f5v0q4ws2y4xv)" height="87.3984" style="stroke: #A80036; stroke-width: 1.0;" width="10" x="275" y="98.5625"/><rect fill="#FFFFFF" filter="url(#f5v0q4ws2y4xv)" height="29.1328" style="stroke: #A80036; stroke-width: 1.0;" width="10" x="374" y="127.6953"/><line style="stroke: #A80036; stroke-width: 1.0; stroke-dasharray: 5.0,5.0;" x1="33" x2="33" y1="38.2969" y2="233.0938"/><line style="stroke: #A80036; stroke-width: 1.0; stroke-dasharray: 5.0,5.0;" x1="105.5" x2="105.5" y1="38.2969" y2="233.0938"/><line style="stroke: #A80036; stroke-width: 1.0; stroke-dasharray: 5.0,5.0;" x1="280" x2="280" y1="38.2969" y2="233.0938"/><line style="stroke: #A80036; stroke-width: 1.0; stroke-dasharray: 5.0,5.0;" x1="379" x2="379" y1="38.2969" y2="233.0938"/><rect fill="#FEFECE" filter="url(#f5v0q4ws2y4xv)" height="30.2969" style="stroke: #A80036; stroke-width: 1.5;" width="46" x="8" y="3"/><text fill="#000000" font-family="sans-serif" font-size="14" lengthAdjust="spacingAndGlyphs" textLength="32" x="15" y="22.9951">User</text><rect fill="#FEFECE" filter="url(#f5v0q4ws2y4xv)" height="30.2969" style="stroke: #A80036; stroke-width: 1.5;" width="46" x="8" y="232.0938"/><text fill="#000000" font-family="sans-serif" font-size="14" lengthAdjust="spacingAndGlyphs" textLength="32" x="15" y="252.0889">User</text><rect fill="#FEFECE" filter="url(#f5v0q4ws2y4xv)" height="30.2969" style="stroke: #A80036; stroke-width: 1.5;" width="23" x="92.5" y="3"/><text fill="#000000" font-family="sans-serif" font-size="14" lengthAdjust="spacingAndGlyphs" textLength="9" x="99.5" y="22.9951">A</text><rect fill="#FEFECE" filter="url(#f5v0q4ws2y4xv)" height="30.2969" style="stroke: #A80036; stroke-width: 1.5;" width="23" x="92.5" y="232.0938"/><text fill="#000000" font-family="sans-serif" font-size="14" lengthAdjust="spacingAndGlyphs" textLength="9" x="99.5" y="252.0889">A</text><rect fill="#FEFECE" filter="url(#f5v0q4ws2y4xv)" height="30.2969" style="stroke: #A80036; stroke-width: 1.5;" width="24" x="266" y="3"/><text fill="#000000" font-family="sans-serif" font-size="14" lengthAdjust="spacingAndGlyphs" textLength="10" x="273" y="22.9951">B</text><rect fill="#FEFECE" filter="url(#f5v0q4ws2y4xv)" height="30.2969" style="stroke: #A80036; stroke-width: 1.5;" width="24" x="266" y="232.0938"/><text fill="#000000" font-family="sans-serif" font-size="14" lengthAdjust="spacingAndGlyphs" textLength="10" x="273" y="252.0889">B</text><rect fill="#FEFECE" filter="url(#f5v0q4ws2y4xv)" height="30.2969" style="stroke: #A80036; stroke-width: 1.5;" width="24" x="365" y="3"/><text fill="#000000" font-family="sans-serif" font-size="14" lengthAdjust="spacingAndGlyphs" textLength="10" x="372" y="22.9951">C</text><rect fill="#FEFECE" filter="url(#f5v0q4ws2y4xv)" height="30.2969" style="stroke: #A80036; stroke-width: 1.5;" width="24" x="365" y="232.0938"/><text fill="#000000" font-family="sans-serif" font-size="14" lengthAdjust="spacingAndGlyphs" textLength="10" x="372" y="252.0889">C</text><rect fill="#FFFFFF" filter="url(#f5v0q4ws2y4xv)" height="145.6641" style="stroke: #A80036; stroke-width: 1.0;" width="10" x="101" y="69.4297"/><rect fill="#FFFFFF" filter="url(#f5v0q4ws2y4xv)" height="87.3984" style="stroke: #A80036; stroke-width: 1.0;" width="10" x="275" y="98.5625"/><rect fill="#FFFFFF" filter="url(#f5v0q4ws2y4xv)" height="29.1328" style="stroke: #A80036; stroke-width: 1.0;" width="10" x="374" y="127.6953"/><polygon fill="#A80036" points="89,65.4297,99,69.4297,89,73.4297,93,69.4297" style="stroke: #A80036; stroke-width: 1.0;"/><line style="stroke: #A80036; stroke-width: 1.0;" x1="33" x2="95" y1="69.4297" y2="69.4297"/><text fill="#000000" font-family="sans-serif" font-size="13" lengthAdjust="spacingAndGlyphs" textLength="49" x="40" y="64.3638">DoWork</text><polygon fill="#A80036" points="263,94.5625,273,98.5625,263,102.5625,267,98.5625" style="stroke: #A80036; stroke-width: 1.0;"/><line style="stroke: #A80036; stroke-width: 1.0;" x1="111" x2="269" y1="98.5625" y2="98.5625"/><text fill="#000000" font-family="sans-serif" font-size="13" lengthAdjust="spacingAndGlyphs" textLength="145" x="118" y="93.4966">&lt;&lt; createRequest &gt;&gt;</text><polygon fill="#A80036" points="362,123.6953,372,127.6953,362,131.6953,366,127.6953" style="stroke: #A80036; stroke-width: 1.0;"/><line style="stroke: #A80036; stroke-width: 1.0;" x1="285" x2="368" y1="127.6953" y2="127.6953"/><text fill="#000000" font-family="sans-serif" font-size="13" lengthAdjust="spacingAndGlyphs" textLength="49" x="292" y="122.6294">DoWork</text><polygon fill="#A80036" points="296,152.8281,286,156.8281,296,160.8281,292,156.8281" style="stroke: #A80036; stroke-width: 1.0;"/><line style="stroke: #A80036; stroke-width: 1.0; stroke-dasharray: 2.0,2.0;" x1="290" x2="378" y1="156.8281" y2="156.8281"/><text fill="#000000" font-family="sans-serif" font-size="13" lengthAdjust="spacingAndGlyphs" textLength="65" x="302" y="151.7622">WorkDone</text><line style="stroke: #A80036; stroke-width: 2.0;" x1="370" x2="388" y1="147.8281" y2="165.8281"/><line style="stroke: #A80036; stroke-width: 2.0;" x1="370" x2="388" y1="165.8281" y2="147.8281"/><polygon fill="#A80036" points="122,181.9609,112,185.9609,122,189.9609,118,185.9609" style="stroke: #A80036; stroke-width: 1.0;"/><line style="stroke: #A80036; stroke-width: 1.0; stroke-dasharray: 2.0,2.0;" x1="116" x2="279" y1="185.9609" y2="185.9609"/><text fill="#000000" font-family="sans-serif" font-size="13" lengthAdjust="spacingAndGlyphs" textLength="103" x="128" y="180.895">RequestCreated</text><polygon fill="#A80036" points="44,211.0938,34,215.0938,44,219.0938,40,215.0938" style="stroke: #A80036; stroke-width: 1.0;"/><line style="stroke: #A80036; stroke-width: 1.0;" x1="38" x2="105" y1="215.0938" y2="215.0938"/><text fill="#000000" font-family="sans-serif" font-size="13" lengthAdjust="spacingAndGlyphs" textLength="34" x="50" y="210.0278">Done</text><!--MD5=[23673d5db9000ff6df401f7de893f848]
@startuml
participant User
User -> A: DoWork
activate A
A -> B: << createRequest >>
activate B
B -> C: DoWork
activate C
C - -> B: WorkDone
destroy C
B - -> A: RequestCreated
deactivate B
A -> User: Done
deactivate A
@enduml

PlantUML version 1.2020.02(Sun Mar 01 10:22:07 UTC 2020)
(GPL source distribution)
Java Runtime: Java(TM) SE Runtime Environment
JVM: Java HotSpot(TM) 64-Bit Server VM
Java Version: 1.7.0_25-b15
Operating System: Linux
Default Encoding: UTF-8
Language: en
Country: US
--></g></svg>