<?xml version="1.0" encoding="UTF-8" standalone="no"?><svg xmlns="http://www.w3.org/2000/svg" xmlns:xlink="http://www.w3.org/1999/xlink" contentScriptType="application/ecmascript" contentStyleType="text/css" height="1080px" preserveAspectRatio="none" style="width:376px;height:1080px;" version="1.1" viewBox="0 0 376 1080" width="376.5px" zoomAndPan="magnify"><defs><filter height="300%" id="fzhxkpkxelv2v" width="300%" x="-1" y="-1"><feGaussianBlur result="blurOut" stdDeviation="3.0"/><feColorMatrix in="blurOut" result="blurOut2" type="matrix" values="0 0 0 0 0 0 0 0 0 0 0 0 0 0 0 0 0 0 .4 0"/><feOffset dx="6.0" dy="6.0" in="blurOut2" result="blurOut3"/><feBlend in="SourceGraphic" in2="blurOut3" mode="normal"/></filter></defs><g><ellipse cx="187.5" cy="30" fill="#000000" filter="url(#fzhxkpkxelv2v)" rx="15" ry="15" style="stroke: none; stroke-width: 1.5;"/><rect fill="#FEFECE" filter="url(#fzhxkpkxelv2v)" height="50.9531" rx="18.75" ry="18.75" style="stroke: #A80036; stroke-width: 2.25;" width="94.5" x="140.25" y="75"/><text fill="#000000" font-family="sans-serif" font-size="18" lengthAdjust="spacingAndGlyphs" textLength="64.5" x="155.25" y="106.708">édition</text><rect fill="#FEFECE" filter="url(#fzhxkpkxelv2v)" height="50.9531" rx="18.75" ry="18.75" style="stroke: #A80036; stroke-width: 2.25;" width="79.5" x="147.75" y="155.9531"/><text fill="#000000" font-family="sans-serif" font-size="18" lengthAdjust="spacingAndGlyphs" textLength="49.5" x="162.75" y="187.6611">envoi</text><rect fill="#000000" filter="url(#fzhxkpkxelv2v)" height="9" rx="3.75" ry="3.75" style="stroke: #000000; stroke-width: 1.5;" width="345" x="15" y="236.9063"/><rect fill="#FEFECE" filter="url(#fzhxkpkxelv2v)" height="50.9531" rx="18.75" ry="18.75" style="stroke: #A80036; stroke-width: 2.25;" width="138" x="33" y="275.9063"/><text fill="#000000" font-family="sans-serif" font-size="18" lengthAdjust="spacingAndGlyphs" textLength="108" x="48" y="307.6143">Vérificateur</text><rect fill="#FEFECE" filter="url(#fzhxkpkxelv2v)" height="50.9531" rx="18.75" ry="18.75" style="stroke: #A80036; stroke-width: 2.25;" width="129" x="213" y="275.9063"/><text fill="#000000" font-family="sans-serif" font-size="18" lengthAdjust="spacingAndGlyphs" textLength="99" x="228" y="307.6143">Contrôleur</text><rect fill="#000000" filter="url(#fzhxkpkxelv2v)" height="9" rx="3.75" ry="3.75" style="stroke: #000000; stroke-width: 1.5;" width="345" x="15" y="356.8594"/><rect fill="#FEFECE" filter="url(#fzhxkpkxelv2v)" height="50.9531" rx="18.75" ry="18.75" style="stroke: #A80036; stroke-width: 2.25;" width="154.5" x="110.25" y="479.425"/><text fill="#000000" font-family="sans-serif" font-size="18" lengthAdjust="spacingAndGlyphs" textLength="124.5" x="125.25" y="511.1331">modifications</text><polygon fill="#FEFECE" filter="url(#fzhxkpkxelv2v)" points="169.5,395.8594,205.5,395.8594,223.5,413.8594,205.5,431.8594,169.5,431.8594,151.5,413.8594,169.5,395.8594" style="stroke: #A80036; stroke-width: 2.25;"/><text fill="#000000" font-family="sans-serif" font-size="16.5" lengthAdjust="spacingAndGlyphs" textLength="36" x="193.5" y="447.175">NOK</text><text fill="#000000" font-family="sans-serif" font-size="16.5" lengthAdjust="spacingAndGlyphs" textLength="24" x="175.5" y="419.5715">OK</text><rect fill="#000000" filter="url(#fzhxkpkxelv2v)" height="9" rx="3.75" ry="3.75" style="stroke: #000000; stroke-width: 1.5;" width="250.5" x="62.25" y="593.3782"/><rect fill="#FEFECE" filter="url(#fzhxkpkxelv2v)" height="50.9531" rx="18.75" ry="18.75" style="stroke: #A80036; stroke-width: 2.25;" width="136.5" x="128.25" y="632.3782"/><text fill="#000000" font-family="sans-serif" font-size="18" lengthAdjust="spacingAndGlyphs" textLength="106.5" x="143.25" y="664.0862">envoi client</text><rect fill="#FEFECE" filter="url(#fzhxkpkxelv2v)" height="50.9531" rx="18.75" ry="18.75" style="stroke: #A80036; stroke-width: 2.25;" width="154.5" x="119.25" y="796.897"/><text fill="#000000" font-family="sans-serif" font-size="18" lengthAdjust="spacingAndGlyphs" textLength="124.5" x="134.25" y="828.605">modifications</text><polygon fill="#FEFECE" filter="url(#fzhxkpkxelv2v)" points="178.5,713.3313,214.5,713.3313,232.5,731.3313,214.5,749.3313,178.5,749.3313,160.5,731.3313,178.5,713.3313" style="stroke: #A80036; stroke-width: 2.25;"/><text fill="#000000" font-family="sans-serif" font-size="16.5" lengthAdjust="spacingAndGlyphs" textLength="36" x="202.5" y="764.647">NOK</text><text fill="#000000" font-family="sans-serif" font-size="16.5" lengthAdjust="spacingAndGlyphs" textLength="24" x="184.5" y="737.0435">OK</text><rect fill="#FEFECE" filter="url(#fzhxkpkxelv2v)" height="50.9531" rx="18.75" ry="18.75" style="stroke: #A80036; stroke-width: 2.25;" width="87" x="153" y="910.8501"/><text fill="#000000" font-family="sans-serif" font-size="18" lengthAdjust="spacingAndGlyphs" textLength="57" x="168" y="942.5581">renvoi</text><rect fill="#000000" filter="url(#fzhxkpkxelv2v)" height="9" rx="3.75" ry="3.75" style="stroke: #000000; stroke-width: 1.5;" width="250.5" x="62.25" y="991.8032"/><ellipse cx="187.5" cy="1047.3032" fill="#FFFFFF" filter="url(#fzhxkpkxelv2v)" rx="16.5" ry="16.5" style="stroke: #000000; stroke-width: 1.5;"/><ellipse cx="187.5" cy="1047.3032" fill="#000000" rx="9" ry="9" style="stroke: #7F7F7F; stroke-width: 1.5;"/><line style="stroke: #A80036; stroke-width: 2.25;" x1="187.5" x2="187.5" y1="45" y2="75"/><polygon fill="#A80036" points="181.5,60,187.5,75,193.5,60,187.5,66" style="stroke: #A80036; stroke-width: 1.5;"/><line style="stroke: #A80036; stroke-width: 2.25;" x1="187.5" x2="187.5" y1="125.9531" y2="155.9531"/><polygon fill="#A80036" points="181.5,140.9531,187.5,155.9531,193.5,140.9531,187.5,146.9531" style="stroke: #A80036; stroke-width: 1.5;"/><line style="stroke: #A80036; stroke-width: 2.25;" x1="102" x2="102" y1="245.9063" y2="275.9063"/><polygon fill="#A80036" points="96,260.9063,102,275.9063,108,260.9063,102,266.9063" style="stroke: #A80036; stroke-width: 1.5;"/><line style="stroke: #A80036; stroke-width: 2.25;" x1="277.5" x2="277.5" y1="245.9063" y2="275.9063"/><polygon fill="#A80036" points="271.5,260.9063,277.5,275.9063,283.5,260.9063,277.5,266.9063" style="stroke: #A80036; stroke-width: 1.5;"/><line style="stroke: #A80036; stroke-width: 2.25;" x1="102" x2="102" y1="326.8594" y2="356.8594"/><polygon fill="#A80036" points="96,341.8594,102,356.8594,108,341.8594,102,347.8594" style="stroke: #A80036; stroke-width: 1.5;"/><line style="stroke: #A80036; stroke-width: 2.25;" x1="277.5" x2="277.5" y1="326.8594" y2="356.8594"/><polygon fill="#A80036" points="271.5,341.8594,277.5,356.8594,283.5,341.8594,277.5,347.8594" style="stroke: #A80036; stroke-width: 1.5;"/><line style="stroke: #A80036; stroke-width: 2.25;" x1="187.5" x2="187.5" y1="206.9063" y2="236.9063"/><polygon fill="#A80036" points="181.5,221.9063,187.5,236.9063,193.5,221.9063,187.5,227.9063" style="stroke: #A80036; stroke-width: 1.5;"/><line style="stroke: #A80036; stroke-width: 2.25;" x1="187.5" x2="187.5" y1="431.8594" y2="479.425"/><polygon fill="#A80036" points="181.5,464.425,187.5,479.425,193.5,464.425,187.5,470.425" style="stroke: #A80036; stroke-width: 1.5;"/><line style="stroke: #A80036; stroke-width: 2.25;" x1="187.5" x2="187.5" y1="530.3782" y2="545.3782"/><line style="stroke: #A80036; stroke-width: 2.25;" x1="187.5" x2="282.75" y1="545.3782" y2="545.3782"/><polygon fill="#A80036" points="276.75,492.2981,282.75,477.2981,288.75,492.2981,282.75,486.2981" style="stroke: #A80036; stroke-width: 2.25;"/><line style="stroke: #A80036; stroke-width: 2.25;" x1="282.75" x2="282.75" y1="413.8594" y2="545.3782"/><line style="stroke: #A80036; stroke-width: 2.25;" x1="282.75" x2="223.5" y1="413.8594" y2="413.8594"/><polygon fill="#A80036" points="238.5,407.8594,223.5,413.8594,238.5,419.8594,232.5,413.8594" style="stroke: #A80036; stroke-width: 1.5;"/><line style="stroke: #A80036; stroke-width: 2.25;" x1="151.5" x2="92.25" y1="413.8594" y2="413.8594"/><polygon fill="#A80036" points="86.25,471.2981,92.25,486.2981,98.25,471.2981,92.25,477.2981" style="stroke: #A80036; stroke-width: 2.25;"/><line style="stroke: #A80036; stroke-width: 2.25;" x1="92.25" x2="92.25" y1="413.8594" y2="563.3782"/><line style="stroke: #A80036; stroke-width: 2.25;" x1="92.25" x2="187.5" y1="563.3782" y2="563.3782"/><line style="stroke: #A80036; stroke-width: 2.25;" x1="187.5" x2="187.5" y1="563.3782" y2="593.3782"/><polygon fill="#A80036" points="181.5,578.3782,187.5,593.3782,193.5,578.3782,187.5,584.3782" style="stroke: #A80036; stroke-width: 1.5;"/><line style="stroke: #A80036; stroke-width: 2.25;" x1="187.5" x2="187.5" y1="365.8594" y2="395.8594"/><polygon fill="#A80036" points="181.5,380.8594,187.5,395.8594,193.5,380.8594,187.5,386.8594" style="stroke: #A80036; stroke-width: 1.5;"/><line style="stroke: #A80036; stroke-width: 2.25;" x1="196.5" x2="196.5" y1="749.3313" y2="796.897"/><polygon fill="#A80036" points="190.5,781.897,196.5,796.897,202.5,781.897,196.5,787.897" style="stroke: #A80036; stroke-width: 1.5;"/><line style="stroke: #A80036; stroke-width: 2.25;" x1="196.5" x2="196.5" y1="847.8501" y2="862.8501"/><line style="stroke: #A80036; stroke-width: 2.25;" x1="196.5" x2="291.75" y1="862.8501" y2="862.8501"/><polygon fill="#A80036" points="285.75,809.77,291.75,794.77,297.75,809.77,291.75,803.77" style="stroke: #A80036; stroke-width: 2.25;"/><line style="stroke: #A80036; stroke-width: 2.25;" x1="291.75" x2="291.75" y1="731.3313" y2="862.8501"/><line style="stroke: #A80036; stroke-width: 2.25;" x1="291.75" x2="232.5" y1="731.3313" y2="731.3313"/><polygon fill="#A80036" points="247.5,725.3313,232.5,731.3313,247.5,737.3313,241.5,731.3313" style="stroke: #A80036; stroke-width: 1.5;"/><line style="stroke: #A80036; stroke-width: 2.25;" x1="160.5" x2="101.25" y1="731.3313" y2="731.3313"/><polygon fill="#A80036" points="95.25,788.77,101.25,803.77,107.25,788.77,101.25,794.77" style="stroke: #A80036; stroke-width: 2.25;"/><line style="stroke: #A80036; stroke-width: 2.25;" x1="101.25" x2="101.25" y1="731.3313" y2="880.8501"/><line style="stroke: #A80036; stroke-width: 2.25;" x1="101.25" x2="196.5" y1="880.8501" y2="880.8501"/><line style="stroke: #A80036; stroke-width: 2.25;" x1="196.5" x2="196.5" y1="880.8501" y2="910.8501"/><polygon fill="#A80036" points="190.5,895.8501,196.5,910.8501,202.5,895.8501,196.5,901.8501" style="stroke: #A80036; stroke-width: 1.5;"/><line style="stroke: #A80036; stroke-width: 2.25;" x1="196.5" x2="196.5" y1="683.3313" y2="713.3313"/><polygon fill="#A80036" points="190.5,698.3313,196.5,713.3313,202.5,698.3313,196.5,704.3313" style="stroke: #A80036; stroke-width: 1.5;"/><line style="stroke: #A80036; stroke-width: 2.25;" x1="196.5" x2="196.5" y1="602.3782" y2="632.3782"/><polygon fill="#A80036" points="190.5,617.3782,196.5,632.3782,202.5,617.3782,196.5,623.3782" style="stroke: #A80036; stroke-width: 1.5;"/><line style="stroke: #A80036; stroke-width: 2.25;" x1="196.5" x2="196.5" y1="961.8032" y2="991.8032"/><polygon fill="#A80036" points="190.5,976.8032,196.5,991.8032,202.5,976.8032,196.5,982.8032" style="stroke: #A80036; stroke-width: 1.5;"/><line style="stroke: #A80036; stroke-width: 2.25;" x1="187.5" x2="187.5" y1="1000.8032" y2="1030.8032"/><polygon fill="#A80036" points="181.5,1015.8032,187.5,1030.8032,193.5,1015.8032,187.5,1021.8032" style="stroke: #A80036; stroke-width: 1.5;"/><!--MD5=[e6098db1c23118607842ab9b599fab02]
@startuml
scale 1.5
start
:édition;
:envoi;
fork
:Vérificateur;
fork again
:Contrôleur;
end fork
while (OK) is (NOK)
:modifications;
endwhile
fork
:envoi client;
while (OK) is (NOK)
:modifications;
endwhile
:renvoi;
end fork
stop
@enduml

PlantUML version 1.2020.02(Sun Mar 01 10:22:07 UTC 2020)
(GPL source distribution)
Java Runtime: Java(TM) SE Runtime Environment
JVM: Java HotSpot(TM) 64-Bit Server VM
Java Version: 1.7.0_25-b15
Operating System: Linux
Default Encoding: UTF-8
Language: en
Country: US
--></g></svg>