<svg xmlns="http://www.w3.org/2000/svg" viewBox="0 0 1176.26 1176.26"><defs><style>.cls-1{fill:#fff}</style></defs><g id="Layer_2" data-name="Layer 2"><g id="Layer_1-2" data-name="Layer 1"><path class="cls-1" d="M0 0v1176.26h1176.26V0zm1136.38 1136.39H39.87V39.87h1096.51z"/><path class="cls-1" transform="rotate(-7 453.546 496.054)" d="M434.58 422.94h38.43v146.4h-38.43z"/><path class="cls-1" d="M427 402.2q6.27 5.11 15.81 4t14.41-7.6a20.2 20.2 0 003.78-15.23q-1.07-8.87-7.39-13.83t-15.73-3.82q-9.41 1.14-14.36 7.46t-3.89 15.19A20.2 20.2 0 00427 402.2zm67.59 44.17l16.79-2 9.34 77.33q5.51 42.18 42.31 37.73a59.65 59.65 0 0020.52-6.16l-3.3-29.59a35.7 35.7 0 01-8.89 2q-6.72.81-9.46-2.13T558.13 512l-8.73-72.25 19.48-2.35-3.44-28.48-19.44 2.35-4.32-35.73-38 4.59 4.32 35.73-16.79 2zm104.92 38.7q4.38 34 21.26 49.63t45 12.28q22.7-2.74 35.31-19.12t10-40.19L675.3 492q2.33 21.53-14.2 23.52-7.39.89-11.82-1.91t-7-9.65q-2.6-6.84-4.74-24.57l-1.79-14.77q-2.18-20.32 1.27-27.89t13.37-8.73q9-1.09 13.69 5t6.3 18.32l35.74-4.32q-3.57-27.24-19.19-40.41t-39.68-10.29q-28.48 3.44-40.88 23.2t-8.26 54zm134.69-18.18q4 33.32 21.81 50.18t45.72 13.49q27.81-3.36 41-23.9t9.18-53.72l-1.12-9.27q-4-33.31-21.88-50.24t-45.66-13.56q-27.54 3.33-40.85 24t-9.32 53.74zm38.91-44q4.28-10.26 14-11.43 10.08-1.22 16.74 7.72t9.03 28.82l1.8 16q2.45 32.69-16.76 35-20.82 2.52-25.53-36.44l-1.15-9.56q-2.41-19.87 1.87-30.13z"/><path class="cls-1" transform="rotate(-7 903.66 441.734)" d="M884.83 368.53h38.43v146.4h-38.43z"/><path class="cls-1" d="M877.23 347.8q6.27 5.11 15.81 4t14.42-7.6a20.21 20.21 0 003.81-15.2q-1.07-8.87-7.39-13.83t-15.73-3.82q-9.41 1.14-14.36 7.46T869.9 334a20.19 20.19 0 007.33 13.8zm129.55 155.25L994 397.47q4.49-11.31 14.84-12.56 9.27-1.12 13.64 4t5.86 17.49l11.2 92.69 38.15-4.61-11.52-95.48q-7.42-52.39-44.9-47.86-20.82 2.52-31.65 21.13L986.8 358l-35.74 4.32 17.56 145.35zM116.2 759.67q14.71 13.42 45.47 21 16.92 4.63 23.77 10t8.3 17.33q2.65 21.89-18 24.4-14.91 1.8-22.42-5.06t-9.55-23.79l-39.63 4.79q2.39 19.75 12.94 33.19a58.83 58.83 0 0027.02 19.37 76.68 76.68 0 0035.46 3.62q27.94-3.38 42.46-19.71t11.43-41.86q-2.81-23.24-17.59-36.72t-44.64-20.36q-17.23-5-24.47-10.74t-8.21-13.8q-1.25-10.34 3.79-17.15t15.38-8.06q11-1.33 17.73 5.15t8.37 20.18l39.36-4.76q-2.13-17.6-11.39-30.52a53 53 0 00-24.28-18.8q-15-5.88-33-3.71-27 3.26-42.72 20.36T99 725.83q2.49 20.42 17.2 33.84zm279.8 25l-11.49-95.11-38 4.59 11.38 94.17q3.18 26.33 15.19 38.85t32 10.1q19.88-2.4 29.77-19.82l2.68 13.17 35.73-4.32L455.72 681l-38.28 4.63 12.69 105q-4.41 12-17.44 13.56-13.85 1.67-16.69-19.52zM562.65 680q-12.9-13.13-29.65-11.1-23.1 2.79-33.07 21.85t-5.65 54.79l1.33 11q4.36 33.82 18.49 49.83t37 13.25q18.4-2.22 28-21.1l3.53 14.57 34.52-4.17-25.01-206.32-38.28 4.63zm3.35 28.11l8 66.36q-4.56 10.77-15.84 12.14-10.88 1.31-16.48-6.66t-8.2-29.47l-1.22-10.07q-2.61-21.63 1.2-30.68t14.29-10.31Q559.1 698 566 708.11zm88.3-68.73q9.54-1.15 14.41-7.6a20.2 20.2 0 003.82-15.18q-1.07-8.87-7.39-13.83t-15.73-3.82q-9.41 1.13-14.41 7.46t-3.89 15.19a20.19 20.19 0 007.33 13.83q6.31 5.11 15.86 3.95z"/><path class="cls-1" transform="rotate(-6.89 665.31 729.344)" d="M646.09 656.16h38.43v146.4h-38.43z"/><path class="cls-1" d="M718.17 727.61q4 33.32 21.81 50.18t45.72 13.49q27.81-3.36 41-23.9t9.18-53.72l-1.12-9.27q-4-33.31-21.88-50.24t-45.66-13.56q-27.54 3.33-40.85 24t-9.32 53.73zm38.91-44q4.28-10.26 14-11.43 10.08-1.22 16.74 7.72t9.07 28.82l1.8 16q2.45 32.69-16.76 35-20.82 2.52-25.53-36.44l-1.15-9.54q-2.45-19.89 1.83-30.15zM201.48 427q13.31-1.61 17 10l6.07 50.25a18 18 0 012.82-.16l-2.8.34 8.5 70.38q-.32 9.1-9.08 10.16l-19.43 2.35L203 603l35-4.23q3.33-.4 9.64-1.08c4.21-.45-.87.19 1.23-.06l12.9 106.72-.94.11-16.79 2 3.49 28.54 16.79-2 9.34 77.33Q279.17 852.49 316 848a59.66 59.66 0 0020.52-6.16l-3.3-29.59a35.7 35.7 0 01-8.89 2q-6.72.81-9.46-2.13t-3.78-11.56l-8.73-72.25 19.45-2.31-3.44-28.48-19.48 2.35-1.88.23-12.83-106.16q7.37-.71 21.38-2.4l5.31 43.94 27-3.26-5.4-44.65a211.19 211.19 0 0025.16-5.7 104.44 104.44 0 0020.54-8.61A57.82 57.82 0 00393.88 561a48.68 48.68 0 009.42-17 66.73 66.73 0 003-22.58q-.65-24.61-12.4-36.52t-32.78-14.3q24.48-16.46 17.48-47.95a45 45 0 00-8.81-19.27 40.4 40.4 0 00-16.1-11.91 80.1 80.1 0 00-20.74-5.47 157.22 157.22 0 00-25-1l-5.33-44.12-27 3.26 5.18 42.9q-7 .85-21.32 2.93l-5.23-43.25-27 3.26 5.33 44.12q-5.76.87-17 2.23l-37.14 4.31 3.56 28.72zm139.57 77.45a26.47 26.47 0 017.45 7.27 25.19 25.19 0 013.4 20 25.07 25.07 0 01-3.44 7.53 24.49 24.49 0 01-6.28 6.08 59.79 59.79 0 01-7.88 4.67 67.41 67.41 0 01-9.42 3.63q-5.57 1.74-9.81 2.69t-10.16 1.94q-5.92 1-9.25 1.38t-8.42.93q-5.09.53-6.49.7l-7.15-59.18q1.4-.17 8.3-1.18t11.27-1.54q4.38-.53 12.15-.94a104 104 0 0113.15 0 85.8 85.8 0 0111.86 1.85 33.49 33.49 0 0110.72 4.18zm-60.85-85.27q3.75-.54 10.21-.79a97.35 97.35 0 0110.94.1 60.37 60.37 0 0110 1.73 26.29 26.29 0 019 3.89 24.49 24.49 0 016.23 6.71 23.12 23.12 0 013.43 10 24.53 24.53 0 01-.49 9.12 17 17 0 01-3.91 7.31 48.21 48.21 0 01-5.91 5.51 29.89 29.89 0 01-8.1 4.26q-5 1.85-8.78 3a74.3 74.3 0 01-9.51 2.13q-5.75 1-8.71 1.41t-8.14 1l-6.05.64-6.49-53.75q1.23-.15 6.9-.92t9.38-1.35z"/></g></g></svg>