<svg xmlns="http://www.w3.org/2000/svg" width="143.772" height="90.49" viewBox="0 0 134.786 84.834"><g transform="translate(-.182 -.804)"><circle r="5.766" cy="9.765" cx="46.656" style="isolation:auto;mix-blend-mode:normal;solid-color:#000;solid-opacity:1" color="#000" overflow="visible" fill="#04a03a"/><path d="M76.607 1.915L58.75 18.925H36.652l-19.554 18.57" fill="none" stroke="#04a03a" stroke-width="2.2" stroke-linecap="round" stroke-linejoin="round"/><path d="M81.098 6.406l-17.857 17.01H41.143l-19.554 18.57" fill="none" stroke="#56c23b" stroke-width="2.2" stroke-linecap="round" stroke-linejoin="round"/><path d="M85.527 11.192l-17.858 17.01H45.571l-19.553 18.57" fill="none" stroke="#9fe839" stroke-width="2.2" stroke-linecap="round" stroke-linejoin="round"/><path d="M90.402 15.666L72.544 32.674H50.446L30.893 51.246" fill="none" stroke="#dbfe18" stroke-width="2.2" stroke-linecap="round" stroke-linejoin="round"/><path d="M95.277 20.148l-17.858 17.01H55.321l-19.553 18.57" fill="none" stroke="#fefe2d" stroke-width="2.2" stroke-linecap="round" stroke-linejoin="round"/><text transform="scale(1.00663 .99341)" y="72.033" x="-.799" style="line-height:125%" font-weight="400" font-size="90.597" font-family="sans-serif" letter-spacing="0" word-spacing="0" fill="#30b65f"><tspan style="-inkscape-font-specification:'Tekton Pro Bold'" y="72.033" x="-.799" font-weight="700" font-size="23.907" font-family="Tekton Pro">Réadaptation</tspan></text><text transform="scale(1.05263 .95)" y="89.909" x="31.386" style="line-height:125%" font-weight="400" font-size="94.737" font-family="sans-serif" letter-spacing="0" word-spacing="0" fill="#30b65f"><tspan style="-inkscape-font-specification:'Tekton Pro Bold'" y="89.909" x="31.386" font-weight="700" font-size="13.158" font-family="Tekton Pro">de Mulhouse</tspan></text><text transform="scale(1.07103 .93368)" style="line-height:125%" x="49.191" y="57.714" font-weight="400" font-size="96.393" font-family="sans-serif" letter-spacing="0" word-spacing="0" fill="#30b65f"><tspan x="49.191" y="57.714" style="-inkscape-font-specification:'Tekton Pro Bold'" font-weight="700" font-size="16.065" font-family="Tekton Pro">Centre de</tspan></text></g></svg>